G75*
%MOIN*%
%OFA0B0*%
%FSLAX24Y24*%
%IPPOS*%
%LPD*%
%AMOC8*
5,1,8,0,0,1.08239X$1,22.5*
%
%ADD10C,0.0060*%
%ADD11C,0.0050*%
%ADD12C,0.0000*%
%ADD13C,0.0120*%
%ADD14C,0.0030*%
%ADD15C,0.0070*%
%ADD16C,0.0100*%
%ADD17C,0.0039*%
%ADD18C,0.0079*%
%ADD19C,0.0040*%
D10*
X007936Y000141D02*
X031849Y000141D01*
X031849Y007971D01*
X039550Y007971D01*
X039550Y031491D01*
X031743Y031491D01*
X031743Y039511D01*
X020074Y039511D01*
X020074Y036853D01*
X006849Y036853D01*
X006849Y031597D01*
X000180Y031597D01*
X000180Y008078D01*
X007936Y008078D01*
X007936Y000141D01*
X009686Y005324D02*
X009686Y008024D01*
X010036Y008024D01*
X010036Y007874D02*
X009886Y007874D01*
X009886Y006074D01*
X009886Y005324D01*
X011486Y005324D01*
X011856Y005324D01*
X013456Y005324D01*
X013456Y006074D01*
X011856Y006074D01*
X011856Y007874D01*
X012006Y007874D01*
X012006Y008024D02*
X011336Y008024D01*
X011336Y007874D02*
X011486Y007874D01*
X011486Y006074D01*
X009886Y006074D01*
X010036Y006324D02*
X010036Y007574D01*
X009686Y008024D02*
X009686Y009024D01*
X009686Y010224D01*
X015626Y010224D01*
X015826Y010224D01*
X015826Y008324D01*
X015626Y008424D01*
X015626Y009024D01*
X009686Y009024D01*
X009886Y009124D02*
X009886Y010124D01*
X011486Y010124D01*
X011486Y009124D01*
X009886Y009124D01*
X010106Y009474D02*
X011306Y009724D01*
X011256Y009774D02*
X010056Y009524D01*
X010133Y009400D02*
X010107Y009417D01*
X010084Y009436D01*
X010064Y009459D01*
X010047Y009483D01*
X010033Y009510D01*
X010022Y009539D01*
X010016Y009568D01*
X010013Y009598D01*
X010014Y009629D01*
X010019Y009658D01*
X010028Y009687D01*
X010041Y009715D01*
X010057Y009740D01*
X010076Y009764D01*
X010116Y009414D02*
X010164Y009378D01*
X010215Y009345D01*
X010267Y009315D01*
X010321Y009289D01*
X010377Y009266D01*
X010434Y009246D01*
X010492Y009230D01*
X010551Y009218D01*
X010611Y009210D01*
X010671Y009205D01*
X010731Y009204D01*
X010791Y009207D01*
X010851Y009214D01*
X010911Y009224D01*
X010969Y009238D01*
X011027Y009256D01*
X011083Y009277D01*
X011138Y009302D01*
X011191Y009330D01*
X011243Y009361D01*
X011292Y009396D01*
X011274Y009382D02*
X011296Y009404D01*
X011315Y009427D01*
X011331Y009453D01*
X011344Y009480D01*
X011354Y009509D01*
X011361Y009538D01*
X011365Y009569D01*
X011365Y009599D01*
X011361Y009629D01*
X011354Y009659D01*
X011344Y009687D01*
X011331Y009715D01*
X011315Y009740D01*
X011296Y009764D01*
X011856Y010124D02*
X013456Y010124D01*
X013456Y009124D01*
X011856Y009124D01*
X011856Y010124D01*
X012036Y009764D02*
X012017Y009740D01*
X012001Y009715D01*
X011988Y009687D01*
X011979Y009658D01*
X011974Y009629D01*
X011973Y009598D01*
X011976Y009568D01*
X011982Y009539D01*
X011993Y009510D01*
X012007Y009483D01*
X012024Y009459D01*
X012044Y009436D01*
X012067Y009417D01*
X012093Y009400D01*
X012066Y009474D02*
X013266Y009724D01*
X013216Y009774D02*
X012016Y009524D01*
X012016Y009744D02*
X012051Y009785D01*
X012090Y009824D01*
X012130Y009860D01*
X012174Y009893D01*
X012219Y009923D01*
X012266Y009951D01*
X012315Y009974D01*
X012366Y009995D01*
X012417Y010012D01*
X012470Y010026D01*
X012523Y010036D01*
X012577Y010042D01*
X012632Y010045D01*
X012686Y010044D01*
X012741Y010039D01*
X012794Y010031D01*
X012848Y010020D01*
X012900Y010004D01*
X012951Y009986D01*
X013001Y009963D01*
X013049Y009938D01*
X013095Y009909D01*
X013139Y009878D01*
X013181Y009843D01*
X013221Y009806D01*
X013258Y009766D01*
X013256Y009764D02*
X013275Y009740D01*
X013291Y009715D01*
X013304Y009687D01*
X013314Y009659D01*
X013321Y009629D01*
X013325Y009599D01*
X013325Y009569D01*
X013321Y009538D01*
X013314Y009509D01*
X013304Y009480D01*
X013291Y009453D01*
X013275Y009427D01*
X013256Y009404D01*
X013234Y009382D01*
X013826Y009124D02*
X015426Y009124D01*
X015426Y010124D01*
X013826Y010124D01*
X013826Y009124D01*
X014036Y009474D02*
X015236Y009724D01*
X015186Y009774D02*
X013986Y009524D01*
X014063Y009400D02*
X014037Y009417D01*
X014014Y009436D01*
X013994Y009459D01*
X013977Y009483D01*
X013963Y009510D01*
X013952Y009539D01*
X013946Y009568D01*
X013943Y009598D01*
X013944Y009629D01*
X013949Y009658D01*
X013958Y009687D01*
X013971Y009715D01*
X013987Y009740D01*
X014006Y009764D01*
X014046Y009414D02*
X014094Y009378D01*
X014145Y009345D01*
X014197Y009315D01*
X014251Y009289D01*
X014307Y009266D01*
X014364Y009246D01*
X014422Y009230D01*
X014481Y009218D01*
X014541Y009210D01*
X014601Y009205D01*
X014661Y009204D01*
X014721Y009207D01*
X014781Y009214D01*
X014841Y009224D01*
X014899Y009238D01*
X014957Y009256D01*
X015013Y009277D01*
X015068Y009302D01*
X015121Y009330D01*
X015173Y009361D01*
X015222Y009396D01*
X015204Y009382D02*
X015226Y009404D01*
X015245Y009427D01*
X015261Y009453D01*
X015274Y009480D01*
X015284Y009509D01*
X015291Y009538D01*
X015295Y009569D01*
X015295Y009599D01*
X015291Y009629D01*
X015284Y009659D01*
X015274Y009687D01*
X015261Y009715D01*
X015245Y009740D01*
X015226Y009764D01*
X015626Y010224D02*
X015626Y009024D01*
X015626Y008424D02*
X015626Y008024D01*
X015276Y008024D01*
X015276Y007874D02*
X015426Y007874D01*
X015426Y006074D01*
X013826Y006074D01*
X013826Y007874D01*
X013986Y007874D01*
X013976Y008024D02*
X013316Y008024D01*
X013306Y007874D02*
X013456Y007874D01*
X013456Y006074D01*
X013306Y006324D02*
X012006Y006324D01*
X012006Y007574D01*
X011336Y007574D02*
X011336Y006324D01*
X010036Y006324D01*
X009886Y005324D02*
X009686Y005324D01*
X011486Y005324D02*
X011486Y006074D01*
X011856Y006074D02*
X011856Y005324D01*
X013456Y005324D02*
X013826Y005324D01*
X015426Y005324D01*
X015426Y006074D01*
X015626Y006174D02*
X015626Y005724D01*
X015626Y005324D01*
X015426Y005324D01*
X015626Y005724D02*
X015826Y005624D01*
X015826Y006274D01*
X015626Y006174D01*
X015626Y008024D01*
X015276Y007574D02*
X015276Y006324D01*
X013976Y006324D01*
X013976Y007574D01*
X013306Y007574D02*
X013306Y006324D01*
X013826Y006074D02*
X013826Y005324D01*
X013986Y009744D02*
X014021Y009785D01*
X014060Y009824D01*
X014101Y009860D01*
X014144Y009893D01*
X014189Y009923D01*
X014236Y009951D01*
X014285Y009974D01*
X014336Y009995D01*
X014387Y010012D01*
X014440Y010026D01*
X014493Y010036D01*
X014548Y010042D01*
X014602Y010045D01*
X014656Y010044D01*
X014711Y010039D01*
X014764Y010031D01*
X014818Y010020D01*
X014870Y010004D01*
X014921Y009985D01*
X014971Y009963D01*
X015019Y009938D01*
X015065Y009909D01*
X015109Y009878D01*
X015151Y009843D01*
X015191Y009806D01*
X015228Y009766D01*
X016322Y011558D02*
X026164Y011558D01*
X026164Y019038D01*
X016322Y019038D01*
X016322Y011558D01*
X016940Y012095D02*
X017190Y011845D01*
X017690Y011845D01*
X017940Y012095D01*
X018190Y011845D01*
X018690Y011845D01*
X018940Y012095D01*
X019190Y011845D01*
X019690Y011845D01*
X019940Y012095D01*
X020190Y011845D01*
X020690Y011845D01*
X020940Y012095D01*
X021190Y011845D01*
X021690Y011845D01*
X021940Y012095D01*
X022190Y011845D01*
X022690Y011845D01*
X022940Y012095D01*
X023190Y011845D01*
X023690Y011845D01*
X023940Y012095D01*
X024190Y011845D01*
X024690Y011845D01*
X024940Y012095D01*
X025190Y011845D01*
X025690Y011845D01*
X025940Y012095D01*
X025940Y012595D01*
X025690Y012845D01*
X025190Y012845D01*
X024940Y012595D01*
X024690Y012845D01*
X024190Y012845D01*
X023940Y012595D01*
X023690Y012845D01*
X023190Y012845D01*
X022940Y012595D01*
X022690Y012845D01*
X022190Y012845D01*
X021940Y012595D01*
X021690Y012845D01*
X021190Y012845D01*
X020940Y012595D01*
X020690Y012845D01*
X020190Y012845D01*
X019940Y012595D01*
X019690Y012845D01*
X019190Y012845D01*
X018940Y012595D01*
X018690Y012845D01*
X018190Y012845D01*
X017940Y012595D01*
X017690Y012845D01*
X017190Y012845D01*
X016940Y012595D01*
X016940Y012095D01*
X017493Y015092D02*
X017493Y015792D01*
X017844Y015792D01*
X017961Y015676D01*
X017961Y015442D01*
X017844Y015325D01*
X017493Y015325D01*
X018193Y015209D02*
X018193Y015676D01*
X018310Y015792D01*
X018544Y015792D01*
X018660Y015676D01*
X018660Y015209D01*
X018544Y015092D01*
X018310Y015092D01*
X018193Y015209D01*
X018893Y015092D02*
X019127Y015325D01*
X019360Y015092D01*
X019360Y015792D01*
X019593Y015792D02*
X019593Y015092D01*
X020060Y015092D01*
X020293Y015092D02*
X020293Y015792D01*
X020643Y015792D01*
X020760Y015676D01*
X020760Y015442D01*
X020643Y015325D01*
X020293Y015325D01*
X020526Y015325D02*
X020760Y015092D01*
X021692Y015209D02*
X021809Y015092D01*
X022043Y015092D01*
X022159Y015209D01*
X022159Y015325D01*
X022043Y015442D01*
X021809Y015442D01*
X021692Y015559D01*
X021692Y015676D01*
X021809Y015792D01*
X022043Y015792D01*
X022159Y015676D01*
X022392Y015792D02*
X022392Y015209D01*
X022509Y015092D01*
X022742Y015092D01*
X022859Y015209D01*
X022859Y015792D01*
X023092Y015792D02*
X023092Y015092D01*
X023092Y015325D02*
X023442Y015325D01*
X023559Y015442D01*
X023559Y015676D01*
X023442Y015792D01*
X023092Y015792D01*
X023792Y015792D02*
X023792Y015092D01*
X023792Y015325D02*
X024142Y015325D01*
X024259Y015442D01*
X024259Y015676D01*
X024142Y015792D01*
X023792Y015792D01*
X024491Y015792D02*
X024491Y015092D01*
X024959Y015092D01*
X025425Y015092D02*
X025425Y015442D01*
X025658Y015676D01*
X025658Y015792D01*
X025425Y015442D02*
X025191Y015676D01*
X025191Y015792D01*
X025216Y019698D02*
X024983Y019698D01*
X024866Y019815D01*
X024866Y020048D01*
X024983Y020165D01*
X025216Y020165D01*
X025333Y020048D01*
X025333Y019932D01*
X024866Y019932D01*
X024633Y020165D02*
X024283Y020165D01*
X024166Y020048D01*
X024166Y019815D01*
X024283Y019698D01*
X024633Y019698D01*
X024633Y020399D01*
X023234Y020399D02*
X023234Y019698D01*
X022883Y019698D01*
X022767Y019815D01*
X022767Y020048D01*
X022883Y020165D01*
X023234Y020165D01*
X022534Y020048D02*
X022534Y019698D01*
X022184Y019698D01*
X022067Y019815D01*
X022184Y019932D01*
X022534Y019932D01*
X022534Y020048D02*
X022417Y020165D01*
X022184Y020165D01*
X021834Y020165D02*
X021484Y020165D01*
X021367Y020048D01*
X021367Y019815D01*
X021484Y019698D01*
X021834Y019698D01*
X021834Y020399D01*
X021017Y020399D02*
X021017Y020516D01*
X021017Y020165D02*
X021017Y019698D01*
X020900Y019698D02*
X021134Y019698D01*
X020668Y019815D02*
X020551Y019932D01*
X020317Y019932D01*
X020201Y020048D01*
X020317Y020165D01*
X020668Y020165D01*
X020900Y020165D02*
X021017Y020165D01*
X020668Y019815D02*
X020551Y019698D01*
X020201Y019698D01*
X019968Y020165D02*
X019851Y020165D01*
X019617Y019932D01*
X019385Y019932D02*
X018918Y019932D01*
X018918Y020048D02*
X019034Y020165D01*
X019268Y020165D01*
X019385Y020048D01*
X019385Y019932D01*
X019268Y019698D02*
X019034Y019698D01*
X018918Y019815D01*
X018918Y020048D01*
X018685Y020165D02*
X018451Y019698D01*
X018218Y020165D01*
X017868Y020165D02*
X017868Y019698D01*
X017751Y019698D02*
X017985Y019698D01*
X017519Y019698D02*
X017519Y020048D01*
X017402Y020165D01*
X017052Y020165D01*
X017052Y019698D01*
X016819Y019815D02*
X016819Y020399D01*
X016352Y020399D02*
X016352Y019815D01*
X016468Y019698D01*
X016702Y019698D01*
X016819Y019815D01*
X017751Y020165D02*
X017868Y020165D01*
X017868Y020399D02*
X017868Y020516D01*
X019617Y020165D02*
X019617Y019698D01*
X019593Y015792D02*
X020060Y015792D01*
X019826Y015442D02*
X019593Y015442D01*
X018893Y015792D02*
X018893Y015092D01*
X020227Y010071D02*
X020227Y008871D01*
X024227Y008871D01*
X024227Y008271D01*
X024227Y007871D01*
X023857Y007871D01*
X023857Y007721D02*
X024007Y007721D01*
X024007Y005921D01*
X024007Y005171D01*
X024227Y005171D01*
X024227Y005571D01*
X024227Y006021D01*
X024227Y007871D01*
X024427Y008171D02*
X024227Y008271D01*
X024427Y008171D02*
X024427Y010071D01*
X024227Y010071D01*
X020227Y010071D01*
X020437Y009971D02*
X022037Y009971D01*
X022037Y008971D01*
X020437Y008971D01*
X020437Y009971D01*
X020597Y009371D02*
X021797Y009621D01*
X021847Y009571D02*
X020647Y009321D01*
X020674Y009247D02*
X020648Y009264D01*
X020625Y009283D01*
X020605Y009306D01*
X020588Y009330D01*
X020574Y009357D01*
X020563Y009386D01*
X020557Y009415D01*
X020554Y009445D01*
X020555Y009476D01*
X020560Y009505D01*
X020569Y009534D01*
X020582Y009562D01*
X020598Y009587D01*
X020617Y009611D01*
X020657Y009261D02*
X020705Y009225D01*
X020756Y009192D01*
X020808Y009162D01*
X020862Y009136D01*
X020918Y009113D01*
X020975Y009093D01*
X021033Y009077D01*
X021092Y009065D01*
X021152Y009057D01*
X021212Y009052D01*
X021272Y009051D01*
X021332Y009054D01*
X021392Y009061D01*
X021452Y009071D01*
X021510Y009085D01*
X021568Y009103D01*
X021624Y009124D01*
X021679Y009149D01*
X021732Y009177D01*
X021784Y009208D01*
X021833Y009243D01*
X021815Y009229D02*
X021837Y009251D01*
X021856Y009274D01*
X021872Y009300D01*
X021885Y009327D01*
X021895Y009356D01*
X021902Y009385D01*
X021906Y009416D01*
X021906Y009446D01*
X021902Y009476D01*
X021895Y009506D01*
X021885Y009534D01*
X021872Y009562D01*
X021856Y009587D01*
X021837Y009611D01*
X022407Y009971D02*
X022407Y008971D01*
X024007Y008971D01*
X024007Y009971D01*
X022407Y009971D01*
X022567Y009371D02*
X023767Y009621D01*
X023817Y009571D02*
X022617Y009321D01*
X022644Y009247D02*
X022618Y009264D01*
X022595Y009283D01*
X022575Y009306D01*
X022558Y009330D01*
X022544Y009357D01*
X022533Y009386D01*
X022527Y009415D01*
X022524Y009445D01*
X022525Y009476D01*
X022530Y009505D01*
X022539Y009534D01*
X022552Y009562D01*
X022568Y009587D01*
X022587Y009611D01*
X022627Y009261D02*
X022675Y009225D01*
X022726Y009192D01*
X022778Y009162D01*
X022832Y009136D01*
X022888Y009113D01*
X022945Y009093D01*
X023003Y009077D01*
X023062Y009065D01*
X023122Y009057D01*
X023182Y009052D01*
X023242Y009051D01*
X023302Y009054D01*
X023362Y009061D01*
X023422Y009071D01*
X023480Y009085D01*
X023538Y009103D01*
X023594Y009124D01*
X023649Y009149D01*
X023702Y009177D01*
X023754Y009208D01*
X023803Y009243D01*
X023785Y009229D02*
X023807Y009251D01*
X023826Y009274D01*
X023842Y009300D01*
X023855Y009327D01*
X023865Y009356D01*
X023872Y009385D01*
X023876Y009416D01*
X023876Y009446D01*
X023872Y009476D01*
X023865Y009506D01*
X023855Y009534D01*
X023842Y009562D01*
X023826Y009587D01*
X023807Y009611D01*
X024227Y010071D02*
X024227Y008871D01*
X023809Y009613D02*
X023772Y009653D01*
X023732Y009690D01*
X023690Y009725D01*
X023646Y009756D01*
X023600Y009785D01*
X023552Y009810D01*
X023502Y009832D01*
X023451Y009851D01*
X023399Y009867D01*
X023345Y009878D01*
X023292Y009886D01*
X023237Y009891D01*
X023183Y009892D01*
X023129Y009889D01*
X023074Y009883D01*
X023021Y009873D01*
X022968Y009859D01*
X022917Y009842D01*
X022866Y009821D01*
X022817Y009798D01*
X022770Y009770D01*
X022725Y009740D01*
X022682Y009707D01*
X022641Y009671D01*
X022602Y009632D01*
X022567Y009591D01*
X021839Y009613D02*
X021802Y009653D01*
X021762Y009690D01*
X021720Y009725D01*
X021676Y009756D01*
X021630Y009785D01*
X021582Y009810D01*
X021532Y009833D01*
X021481Y009851D01*
X021429Y009867D01*
X021375Y009878D01*
X021322Y009886D01*
X021267Y009891D01*
X021213Y009892D01*
X021158Y009889D01*
X021104Y009883D01*
X021051Y009873D01*
X020998Y009859D01*
X020947Y009842D01*
X020896Y009821D01*
X020847Y009798D01*
X020800Y009770D01*
X020755Y009740D01*
X020711Y009707D01*
X020671Y009671D01*
X020632Y009632D01*
X020597Y009591D01*
X020227Y008871D02*
X020227Y007871D01*
X020587Y007871D01*
X020587Y007721D02*
X020437Y007721D01*
X020437Y005921D01*
X020437Y005171D01*
X022037Y005171D01*
X022407Y005171D01*
X024007Y005171D01*
X024227Y005571D02*
X024427Y005471D01*
X024427Y006121D01*
X024227Y006021D01*
X024007Y005921D02*
X022407Y005921D01*
X022407Y007721D01*
X022557Y007721D01*
X022557Y007871D02*
X021887Y007871D01*
X021887Y007721D02*
X022037Y007721D01*
X022037Y005921D01*
X020437Y005921D01*
X020587Y006171D02*
X020587Y007421D01*
X020227Y007871D02*
X020227Y005171D01*
X020437Y005171D01*
X020769Y004786D02*
X021196Y004786D01*
X021410Y004572D01*
X021196Y004358D01*
X020769Y004358D01*
X020769Y004141D02*
X020769Y003714D01*
X021090Y003714D01*
X020983Y003927D01*
X020983Y004034D01*
X021090Y004141D01*
X021303Y004141D01*
X021410Y004034D01*
X021410Y003821D01*
X021303Y003714D01*
X022037Y005171D02*
X022037Y005921D01*
X021887Y006171D02*
X020587Y006171D01*
X021887Y006171D02*
X021887Y007421D01*
X022557Y007421D02*
X022557Y006171D01*
X023857Y006171D01*
X023857Y007421D01*
X025204Y007961D02*
X025564Y007961D01*
X025564Y007811D02*
X025414Y007811D01*
X025414Y006011D01*
X025414Y005261D01*
X027014Y005261D01*
X027384Y005261D01*
X028984Y005261D01*
X028984Y006011D01*
X027384Y006011D01*
X027384Y007811D01*
X027534Y007811D01*
X027534Y007961D02*
X026864Y007961D01*
X026864Y007811D02*
X027014Y007811D01*
X027014Y006011D01*
X025414Y006011D01*
X025564Y006261D02*
X025564Y007511D01*
X025204Y007961D02*
X025204Y008961D01*
X025204Y010161D01*
X029204Y010161D01*
X029404Y010161D01*
X029404Y008261D01*
X029204Y008361D01*
X029204Y008961D01*
X025204Y008961D01*
X025414Y009061D02*
X025414Y010061D01*
X027014Y010061D01*
X027014Y009061D01*
X025414Y009061D01*
X025624Y009411D02*
X026824Y009661D01*
X026774Y009711D02*
X025574Y009461D01*
X025651Y009337D02*
X025625Y009354D01*
X025602Y009373D01*
X025582Y009396D01*
X025565Y009420D01*
X025551Y009447D01*
X025540Y009476D01*
X025534Y009505D01*
X025531Y009535D01*
X025532Y009566D01*
X025537Y009595D01*
X025546Y009624D01*
X025559Y009652D01*
X025575Y009677D01*
X025594Y009701D01*
X025574Y009681D02*
X025609Y009722D01*
X025648Y009761D01*
X025688Y009797D01*
X025732Y009830D01*
X025777Y009860D01*
X025824Y009888D01*
X025873Y009911D01*
X025924Y009932D01*
X025975Y009949D01*
X026028Y009963D01*
X026081Y009973D01*
X026135Y009979D01*
X026190Y009982D01*
X026244Y009981D01*
X026299Y009976D01*
X026352Y009968D01*
X026406Y009957D01*
X026458Y009941D01*
X026509Y009923D01*
X026559Y009900D01*
X026607Y009875D01*
X026653Y009846D01*
X026697Y009815D01*
X026739Y009780D01*
X026779Y009743D01*
X026816Y009703D01*
X026814Y009701D02*
X026833Y009677D01*
X026849Y009652D01*
X026862Y009624D01*
X026872Y009596D01*
X026879Y009566D01*
X026883Y009536D01*
X026883Y009506D01*
X026879Y009475D01*
X026872Y009446D01*
X026862Y009417D01*
X026849Y009390D01*
X026833Y009364D01*
X026814Y009341D01*
X026792Y009319D01*
X027384Y009061D02*
X028984Y009061D01*
X028984Y010061D01*
X027384Y010061D01*
X027384Y009061D01*
X027594Y009411D02*
X028794Y009661D01*
X028744Y009711D02*
X027544Y009461D01*
X027621Y009337D02*
X027595Y009354D01*
X027572Y009373D01*
X027552Y009396D01*
X027535Y009420D01*
X027521Y009447D01*
X027510Y009476D01*
X027504Y009505D01*
X027501Y009535D01*
X027502Y009566D01*
X027507Y009595D01*
X027516Y009624D01*
X027529Y009652D01*
X027545Y009677D01*
X027564Y009701D01*
X027604Y009351D02*
X027652Y009315D01*
X027703Y009282D01*
X027755Y009252D01*
X027809Y009226D01*
X027865Y009203D01*
X027922Y009183D01*
X027980Y009167D01*
X028039Y009155D01*
X028099Y009147D01*
X028159Y009142D01*
X028219Y009141D01*
X028279Y009144D01*
X028339Y009151D01*
X028399Y009161D01*
X028457Y009175D01*
X028515Y009193D01*
X028571Y009214D01*
X028626Y009239D01*
X028679Y009267D01*
X028731Y009298D01*
X028780Y009333D01*
X028762Y009319D02*
X028784Y009341D01*
X028803Y009364D01*
X028819Y009390D01*
X028832Y009417D01*
X028842Y009446D01*
X028849Y009475D01*
X028853Y009506D01*
X028853Y009536D01*
X028849Y009566D01*
X028842Y009596D01*
X028832Y009624D01*
X028819Y009652D01*
X028803Y009677D01*
X028784Y009701D01*
X029204Y010161D02*
X029204Y008961D01*
X029204Y008361D02*
X029204Y007961D01*
X028834Y007961D01*
X028834Y007811D02*
X028984Y007811D01*
X028984Y006011D01*
X029204Y006111D02*
X029204Y005661D01*
X029204Y005261D01*
X028984Y005261D01*
X029204Y005661D02*
X029404Y005561D01*
X029404Y006211D01*
X029204Y006111D01*
X029204Y007961D01*
X028834Y007511D02*
X028834Y006261D01*
X027534Y006261D01*
X027534Y007511D01*
X026864Y007511D02*
X026864Y006261D01*
X025564Y006261D01*
X025414Y005261D02*
X025204Y005261D01*
X025204Y007961D01*
X025634Y009351D02*
X025682Y009315D01*
X025733Y009282D01*
X025785Y009252D01*
X025839Y009226D01*
X025895Y009203D01*
X025952Y009183D01*
X026010Y009167D01*
X026069Y009155D01*
X026129Y009147D01*
X026189Y009142D01*
X026249Y009141D01*
X026309Y009144D01*
X026369Y009151D01*
X026429Y009161D01*
X026487Y009175D01*
X026545Y009193D01*
X026601Y009214D01*
X026656Y009239D01*
X026709Y009267D01*
X026761Y009298D01*
X026810Y009333D01*
X027544Y009681D02*
X027579Y009722D01*
X027618Y009761D01*
X027659Y009797D01*
X027702Y009830D01*
X027747Y009860D01*
X027794Y009888D01*
X027843Y009911D01*
X027894Y009932D01*
X027945Y009949D01*
X027998Y009963D01*
X028051Y009973D01*
X028106Y009979D01*
X028160Y009982D01*
X028214Y009981D01*
X028269Y009976D01*
X028322Y009968D01*
X028376Y009957D01*
X028428Y009941D01*
X028479Y009922D01*
X028529Y009900D01*
X028577Y009875D01*
X028623Y009846D01*
X028667Y009815D01*
X028709Y009780D01*
X028749Y009743D01*
X028786Y009703D01*
X029895Y011987D02*
X029645Y012237D01*
X029645Y012737D01*
X029895Y012987D01*
X030395Y012987D01*
X030645Y012737D01*
X030895Y012987D01*
X031395Y012987D01*
X031645Y012737D01*
X031895Y012987D01*
X032395Y012987D01*
X032645Y012737D01*
X032895Y012987D01*
X033395Y012987D01*
X033645Y012737D01*
X033895Y012987D01*
X034395Y012987D01*
X034645Y012737D01*
X034895Y012987D01*
X035395Y012987D01*
X035645Y012737D01*
X035895Y012987D01*
X036395Y012987D01*
X036645Y012737D01*
X036895Y012987D01*
X037395Y012987D01*
X037645Y012737D01*
X037645Y012237D01*
X037395Y011987D01*
X036895Y011987D01*
X036645Y012237D01*
X036395Y011987D01*
X035895Y011987D01*
X035645Y012237D01*
X035395Y011987D01*
X034895Y011987D01*
X034645Y012237D01*
X034395Y011987D01*
X033895Y011987D01*
X033645Y012237D01*
X033395Y011987D01*
X032895Y011987D01*
X032645Y012237D01*
X032395Y011987D01*
X031895Y011987D01*
X031645Y012237D01*
X031395Y011987D01*
X030895Y011987D01*
X030645Y012237D01*
X030395Y011987D01*
X029895Y011987D01*
X027384Y006011D02*
X027384Y005261D01*
X027014Y005261D02*
X027014Y006011D01*
X023772Y004142D02*
X023772Y003822D01*
X023132Y003822D01*
X023132Y004142D01*
X023238Y004249D01*
X023665Y004249D01*
X023772Y004142D01*
X023772Y003604D02*
X023132Y003604D01*
X023132Y003177D02*
X023772Y003604D01*
X023772Y003177D02*
X023132Y003177D01*
X023238Y002960D02*
X023132Y002853D01*
X023132Y002640D01*
X023238Y002533D01*
X023665Y002533D01*
X023772Y002640D01*
X023772Y002853D01*
X023665Y002960D01*
X023452Y002960D01*
X023452Y002746D01*
X022407Y005171D02*
X022407Y005921D01*
X013885Y012095D02*
X013635Y011845D01*
X013135Y011845D01*
X012885Y012095D01*
X012635Y011845D01*
X012135Y011845D01*
X011885Y012095D01*
X011635Y011845D01*
X011135Y011845D01*
X010885Y012095D01*
X010885Y012595D01*
X011135Y012845D01*
X011635Y012845D01*
X011885Y012595D01*
X012135Y012845D01*
X012635Y012845D01*
X012885Y012595D01*
X013135Y012845D01*
X013635Y012845D01*
X013885Y012595D01*
X013885Y012095D01*
X013252Y009396D02*
X013203Y009361D01*
X013151Y009330D01*
X013098Y009302D01*
X013043Y009277D01*
X012987Y009256D01*
X012929Y009238D01*
X012871Y009224D01*
X012811Y009214D01*
X012751Y009207D01*
X012691Y009204D01*
X012631Y009205D01*
X012571Y009210D01*
X012511Y009218D01*
X012452Y009230D01*
X012394Y009246D01*
X012337Y009266D01*
X012281Y009289D01*
X012227Y009315D01*
X012175Y009345D01*
X012124Y009378D01*
X012076Y009414D01*
X011298Y009766D02*
X011261Y009806D01*
X011221Y009843D01*
X011179Y009878D01*
X011135Y009909D01*
X011089Y009938D01*
X011041Y009963D01*
X010991Y009986D01*
X010940Y010004D01*
X010888Y010020D01*
X010834Y010031D01*
X010781Y010039D01*
X010726Y010044D01*
X010672Y010045D01*
X010617Y010042D01*
X010563Y010036D01*
X010510Y010026D01*
X010457Y010012D01*
X010406Y009995D01*
X010355Y009974D01*
X010306Y009951D01*
X010259Y009923D01*
X010214Y009893D01*
X010170Y009860D01*
X010130Y009824D01*
X010091Y009785D01*
X010056Y009744D01*
X009219Y011578D02*
X001432Y011578D01*
X001432Y019471D01*
X009219Y019471D01*
X009219Y011578D01*
X008719Y012328D02*
X008469Y012078D01*
X007969Y012078D01*
X007719Y012328D01*
X007469Y012078D01*
X006969Y012078D01*
X006719Y012328D01*
X006469Y012078D01*
X005969Y012078D01*
X005719Y012328D01*
X005469Y012078D01*
X004969Y012078D01*
X004719Y012328D01*
X004469Y012078D01*
X003969Y012078D01*
X003719Y012328D01*
X003469Y012078D01*
X002969Y012078D01*
X002719Y012328D01*
X002719Y012828D01*
X002969Y013078D01*
X003469Y013078D01*
X003719Y012828D01*
X003969Y013078D01*
X004469Y013078D01*
X004719Y012828D01*
X004969Y013078D01*
X005469Y013078D01*
X005719Y012828D01*
X005969Y013078D01*
X006469Y013078D01*
X006719Y012828D01*
X006969Y013078D01*
X007469Y013078D01*
X007719Y012828D01*
X007969Y013078D01*
X008469Y013078D01*
X008719Y012828D01*
X008719Y012328D01*
X007131Y015564D02*
X007131Y015915D01*
X007365Y016148D01*
X007365Y016265D01*
X007131Y015915D02*
X006898Y016148D01*
X006898Y016265D01*
X006665Y016148D02*
X006548Y016265D01*
X006315Y016265D01*
X006198Y016148D01*
X006198Y015681D01*
X006315Y015564D01*
X006548Y015564D01*
X006665Y015681D01*
X006665Y015915D01*
X006432Y015915D01*
X005965Y015915D02*
X005849Y015798D01*
X005498Y015798D01*
X005498Y015564D02*
X005498Y016265D01*
X005849Y016265D01*
X005965Y016148D01*
X005965Y015915D01*
X005732Y015798D02*
X005965Y015564D01*
X005266Y015564D02*
X004799Y015564D01*
X004799Y016265D01*
X005266Y016265D01*
X005032Y015915D02*
X004799Y015915D01*
X004566Y016265D02*
X004566Y015564D01*
X004099Y016265D01*
X004099Y015564D01*
X003866Y015564D02*
X003399Y015564D01*
X003399Y016265D01*
X003866Y016265D01*
X003633Y015915D02*
X003399Y015915D01*
X001361Y021794D02*
X001361Y028487D01*
X011204Y028487D01*
X011204Y021794D01*
X001361Y021794D01*
X002692Y022568D02*
X002942Y022318D01*
X003442Y022318D01*
X003692Y022568D01*
X003942Y022318D01*
X004442Y022318D01*
X004692Y022568D01*
X004942Y022318D01*
X005442Y022318D01*
X005692Y022568D01*
X005942Y022318D01*
X006442Y022318D01*
X006692Y022568D01*
X006942Y022318D01*
X007442Y022318D01*
X007692Y022568D01*
X007942Y022318D01*
X008442Y022318D01*
X008692Y022568D01*
X008692Y023068D01*
X008442Y023318D01*
X007942Y023318D01*
X007692Y023068D01*
X007442Y023318D01*
X006942Y023318D01*
X006692Y023068D01*
X006442Y023318D01*
X005942Y023318D01*
X005692Y023068D01*
X005442Y023318D01*
X004942Y023318D01*
X004692Y023068D01*
X004442Y023318D01*
X003942Y023318D01*
X003692Y023068D01*
X003442Y023318D01*
X002942Y023318D01*
X002692Y023068D01*
X002692Y022568D01*
X003635Y025249D02*
X003635Y025950D01*
X003985Y025950D01*
X004102Y025833D01*
X004102Y025600D01*
X003985Y025483D01*
X003635Y025483D01*
X004335Y025483D02*
X004685Y025483D01*
X004802Y025600D01*
X004802Y025833D01*
X004685Y025950D01*
X004335Y025950D01*
X004335Y025249D01*
X004569Y025483D02*
X004802Y025249D01*
X005035Y025249D02*
X005502Y025249D01*
X005735Y025366D02*
X005851Y025249D01*
X006085Y025249D01*
X006202Y025366D01*
X006202Y025483D01*
X006085Y025600D01*
X005851Y025600D01*
X005735Y025716D01*
X005735Y025833D01*
X005851Y025950D01*
X006085Y025950D01*
X006202Y025833D01*
X006434Y025833D02*
X006434Y025716D01*
X006551Y025600D01*
X006785Y025600D01*
X006901Y025483D01*
X006901Y025366D01*
X006785Y025249D01*
X006551Y025249D01*
X006434Y025366D01*
X007134Y025366D02*
X007251Y025249D01*
X007484Y025249D01*
X007601Y025366D01*
X007601Y025950D01*
X007834Y025950D02*
X008184Y025950D01*
X008301Y025833D01*
X008301Y025600D01*
X008184Y025483D01*
X007834Y025483D01*
X008068Y025483D02*
X008301Y025249D01*
X008534Y025249D02*
X009001Y025249D01*
X008767Y025600D02*
X008534Y025600D01*
X008534Y025950D02*
X008534Y025249D01*
X007834Y025249D02*
X007834Y025950D01*
X008534Y025950D02*
X009001Y025950D01*
X007134Y025950D02*
X007134Y025366D01*
X006901Y025833D02*
X006785Y025950D01*
X006551Y025950D01*
X006434Y025833D01*
X005502Y025950D02*
X005035Y025950D01*
X005035Y025249D01*
X005035Y025600D02*
X005268Y025600D01*
X009620Y029633D02*
X009620Y029853D01*
X010370Y029853D01*
X010370Y031453D01*
X012170Y031453D01*
X012170Y031303D01*
X012320Y031303D02*
X012320Y031973D01*
X012170Y031973D02*
X012170Y031823D01*
X010370Y031823D01*
X010370Y033423D01*
X009620Y033423D01*
X009620Y031823D01*
X009620Y031453D01*
X009620Y029853D01*
X009620Y029633D02*
X010020Y029633D01*
X010470Y029633D01*
X012320Y029633D01*
X012320Y030003D01*
X012170Y030003D02*
X012170Y029853D01*
X010370Y029853D01*
X010470Y029633D02*
X010570Y029433D01*
X009920Y029433D01*
X010020Y029633D01*
X010620Y030003D02*
X010620Y031303D01*
X011870Y031303D01*
X011870Y031973D02*
X010620Y031973D01*
X010620Y033273D01*
X011870Y033273D01*
X012170Y033273D02*
X012170Y033423D01*
X010370Y033423D01*
X009620Y033423D02*
X009620Y033633D01*
X012320Y033633D01*
X012320Y033273D01*
X012320Y033633D02*
X013320Y033633D01*
X014520Y033633D01*
X014520Y029633D01*
X014520Y029433D01*
X012620Y029433D01*
X012720Y029633D01*
X013320Y029633D01*
X013320Y033633D01*
X013420Y033423D02*
X014420Y033423D01*
X014420Y031823D01*
X013420Y031823D01*
X013420Y033423D01*
X013770Y033213D02*
X014020Y032013D01*
X014070Y032063D02*
X013820Y033263D01*
X013696Y033186D02*
X013713Y033212D01*
X013732Y033235D01*
X013755Y033255D01*
X013779Y033272D01*
X013806Y033286D01*
X013835Y033297D01*
X013864Y033303D01*
X013894Y033306D01*
X013925Y033305D01*
X013954Y033300D01*
X013983Y033291D01*
X014011Y033278D01*
X014036Y033262D01*
X014060Y033243D01*
X013710Y033203D02*
X013674Y033155D01*
X013641Y033104D01*
X013611Y033052D01*
X013585Y032998D01*
X013562Y032942D01*
X013542Y032885D01*
X013526Y032827D01*
X013514Y032768D01*
X013506Y032708D01*
X013501Y032648D01*
X013500Y032588D01*
X013503Y032528D01*
X013510Y032468D01*
X013520Y032408D01*
X013534Y032350D01*
X013552Y032292D01*
X013573Y032236D01*
X013598Y032181D01*
X013626Y032128D01*
X013657Y032076D01*
X013692Y032027D01*
X013678Y032045D02*
X013700Y032023D01*
X013723Y032004D01*
X013749Y031988D01*
X013776Y031975D01*
X013805Y031965D01*
X013834Y031958D01*
X013865Y031954D01*
X013895Y031954D01*
X013925Y031958D01*
X013955Y031965D01*
X013983Y031975D01*
X014011Y031988D01*
X014036Y032004D01*
X014060Y032023D01*
X014420Y031453D02*
X014420Y029853D01*
X013420Y029853D01*
X013420Y031453D01*
X014420Y031453D01*
X013820Y031293D02*
X014070Y030093D01*
X014020Y030043D02*
X013770Y031243D01*
X013696Y031216D02*
X013713Y031242D01*
X013732Y031265D01*
X013755Y031285D01*
X013779Y031302D01*
X013806Y031316D01*
X013835Y031327D01*
X013864Y031333D01*
X013894Y031336D01*
X013925Y031335D01*
X013954Y031330D01*
X013983Y031321D01*
X014011Y031308D01*
X014036Y031292D01*
X014060Y031273D01*
X013710Y031233D02*
X013674Y031185D01*
X013641Y031134D01*
X013611Y031082D01*
X013585Y031028D01*
X013562Y030972D01*
X013542Y030915D01*
X013526Y030857D01*
X013514Y030798D01*
X013506Y030738D01*
X013501Y030678D01*
X013500Y030618D01*
X013503Y030558D01*
X013510Y030498D01*
X013520Y030438D01*
X013534Y030380D01*
X013552Y030322D01*
X013573Y030266D01*
X013598Y030211D01*
X013626Y030158D01*
X013657Y030106D01*
X013692Y030057D01*
X013678Y030075D02*
X013700Y030053D01*
X013723Y030034D01*
X013749Y030018D01*
X013776Y030005D01*
X013805Y029995D01*
X013834Y029988D01*
X013865Y029984D01*
X013895Y029984D01*
X013925Y029988D01*
X013955Y029995D01*
X013983Y030005D01*
X014011Y030018D01*
X014036Y030034D01*
X014060Y030053D01*
X014520Y029633D02*
X013320Y029633D01*
X012720Y029633D02*
X012320Y029633D01*
X011870Y030003D02*
X010620Y030003D01*
X010370Y031453D02*
X009620Y031453D01*
X009620Y031823D02*
X010370Y031823D01*
X014062Y032021D02*
X014102Y032058D01*
X014139Y032098D01*
X014174Y032140D01*
X014205Y032184D01*
X014234Y032230D01*
X014259Y032278D01*
X014282Y032328D01*
X014300Y032379D01*
X014316Y032431D01*
X014327Y032485D01*
X014335Y032538D01*
X014340Y032593D01*
X014341Y032647D01*
X014338Y032702D01*
X014332Y032756D01*
X014322Y032809D01*
X014308Y032862D01*
X014291Y032913D01*
X014270Y032964D01*
X014247Y033013D01*
X014219Y033060D01*
X014189Y033105D01*
X014156Y033149D01*
X014120Y033189D01*
X014081Y033228D01*
X014040Y033263D01*
X014040Y031293D02*
X014081Y031258D01*
X014120Y031219D01*
X014156Y031178D01*
X014189Y031135D01*
X014219Y031090D01*
X014247Y031043D01*
X014270Y030994D01*
X014291Y030943D01*
X014308Y030892D01*
X014322Y030839D01*
X014332Y030786D01*
X014338Y030731D01*
X014341Y030677D01*
X014340Y030623D01*
X014335Y030568D01*
X014327Y030515D01*
X014316Y030461D01*
X014300Y030409D01*
X014281Y030358D01*
X014259Y030308D01*
X014234Y030260D01*
X014205Y030214D01*
X014174Y030170D01*
X014139Y030128D01*
X014102Y030088D01*
X014062Y030051D01*
X024267Y035686D02*
X024517Y035436D01*
X025017Y035436D01*
X025267Y035686D01*
X025517Y035436D01*
X026017Y035436D01*
X026267Y035686D01*
X026517Y035436D01*
X027017Y035436D01*
X027267Y035686D01*
X027517Y035436D01*
X028017Y035436D01*
X028267Y035686D01*
X028517Y035436D01*
X029017Y035436D01*
X029267Y035686D01*
X029517Y035436D01*
X030017Y035436D01*
X030267Y035686D01*
X030267Y036186D01*
X030017Y036436D01*
X029517Y036436D01*
X029267Y036186D01*
X029017Y036436D01*
X028517Y036436D01*
X028267Y036186D01*
X028017Y036436D01*
X027517Y036436D01*
X027267Y036186D01*
X027017Y036436D01*
X026517Y036436D01*
X026267Y036186D01*
X026017Y036436D01*
X025517Y036436D01*
X025267Y036186D01*
X025017Y036436D01*
X024517Y036436D01*
X024267Y036186D01*
X024267Y035686D01*
X025611Y032893D02*
X025361Y032643D01*
X025361Y032143D01*
X025611Y031893D01*
X026111Y031893D01*
X026361Y032143D01*
X026611Y031893D01*
X027111Y031893D01*
X027361Y032143D01*
X027611Y031893D01*
X028111Y031893D01*
X028361Y032143D01*
X028361Y032643D01*
X028111Y032893D01*
X027611Y032893D01*
X027361Y032643D01*
X027111Y032893D01*
X026611Y032893D01*
X026361Y032643D01*
X026111Y032893D01*
X025611Y032893D01*
X025525Y025024D02*
X025525Y024383D01*
X025952Y024383D01*
X026170Y024490D02*
X026276Y024383D01*
X026490Y024383D01*
X026597Y024490D01*
X026597Y024917D01*
X026490Y025024D01*
X026276Y025024D01*
X026170Y024917D01*
X026170Y024490D01*
X026814Y024597D02*
X027134Y024597D01*
X027241Y024704D01*
X027241Y024917D01*
X027134Y025024D01*
X026814Y025024D01*
X026814Y024383D01*
X027459Y024917D02*
X027459Y025024D01*
X027459Y024917D02*
X027672Y024704D01*
X027672Y024383D01*
X027672Y024704D02*
X027886Y024917D01*
X027886Y025024D01*
X028103Y024704D02*
X028530Y024704D01*
X028423Y025024D02*
X028423Y024383D01*
X028103Y024704D02*
X028423Y025024D01*
X028132Y020399D02*
X028132Y019698D01*
X027782Y019698D01*
X027665Y019815D01*
X027665Y020048D01*
X027782Y020165D01*
X028132Y020165D01*
X028365Y020048D02*
X028365Y019815D01*
X028482Y019698D01*
X028715Y019698D01*
X028832Y019932D02*
X028365Y019932D01*
X028365Y020048D02*
X028482Y020165D01*
X028715Y020165D01*
X028832Y020048D01*
X028832Y019932D01*
X029065Y019698D02*
X029298Y019698D01*
X029181Y019698D02*
X029181Y020399D01*
X029065Y020399D01*
X029531Y020399D02*
X029648Y020399D01*
X029648Y019698D01*
X029531Y019698D02*
X029765Y019698D01*
X029998Y019698D02*
X030231Y019698D01*
X030115Y019698D02*
X030115Y020165D01*
X029998Y020165D01*
X030115Y020399D02*
X030115Y020516D01*
X030464Y020165D02*
X030815Y020165D01*
X030931Y020048D01*
X030931Y019698D01*
X030464Y019698D02*
X030464Y020165D01*
X027432Y020048D02*
X027432Y019932D01*
X026965Y019932D01*
X026965Y020048D02*
X027082Y020165D01*
X027316Y020165D01*
X027432Y020048D01*
X027316Y019698D02*
X027082Y019698D01*
X026965Y019815D01*
X026965Y020048D01*
X026733Y019698D02*
X026733Y020399D01*
X026499Y020165D01*
X026266Y020399D01*
X026266Y019698D01*
D11*
X025490Y013471D02*
X025340Y013471D01*
X025265Y013396D01*
X025265Y013321D01*
X025340Y013246D01*
X025565Y013246D01*
X025565Y013396D02*
X025490Y013471D01*
X025565Y013396D02*
X025565Y013095D01*
X025490Y013020D01*
X025340Y013020D01*
X025265Y013095D01*
X025609Y008687D02*
X025609Y008236D01*
X025459Y008236D02*
X025759Y008236D01*
X025459Y008537D02*
X025609Y008687D01*
X027459Y008612D02*
X027534Y008687D01*
X027684Y008687D01*
X027759Y008612D01*
X027759Y008537D01*
X027459Y008236D01*
X027759Y008236D01*
X030034Y011362D02*
X029959Y011437D01*
X029959Y011512D01*
X030034Y011587D01*
X030184Y011587D01*
X030259Y011512D01*
X030259Y011437D01*
X030184Y011362D01*
X030034Y011362D01*
X030034Y011587D02*
X029959Y011662D01*
X029959Y011737D01*
X030034Y011812D01*
X030184Y011812D01*
X030259Y011737D01*
X030259Y011662D01*
X030184Y011587D01*
X035328Y011587D02*
X035628Y011587D01*
X035788Y011512D02*
X036014Y011512D01*
X036089Y011587D01*
X036089Y011737D01*
X036014Y011812D01*
X035788Y011812D01*
X035788Y011362D01*
X035628Y011362D02*
X035628Y011812D01*
X035328Y011812D02*
X035328Y011362D01*
X036249Y011362D02*
X036249Y011812D01*
X036399Y011662D01*
X036549Y011812D01*
X036549Y011362D01*
X036709Y011362D02*
X036709Y011662D01*
X036859Y011812D01*
X037009Y011662D01*
X037009Y011362D01*
X037009Y011587D02*
X036709Y011587D01*
X036909Y013162D02*
X037209Y013162D01*
X037059Y013162D02*
X037059Y013612D01*
X036909Y013462D01*
X028407Y004273D02*
X027796Y004273D01*
X027796Y003866D02*
X028407Y004273D01*
X028407Y003866D02*
X027796Y003866D01*
X026438Y004122D02*
X026438Y004529D01*
X026438Y004122D02*
X025828Y004122D01*
X022783Y008146D02*
X022482Y008146D01*
X022783Y008446D01*
X022783Y008521D01*
X022707Y008596D01*
X022557Y008596D01*
X022482Y008521D01*
X020783Y008146D02*
X020482Y008146D01*
X020632Y008146D02*
X020632Y008596D01*
X020482Y008446D01*
X017565Y011220D02*
X017265Y011220D01*
X017415Y011220D02*
X017415Y011671D01*
X017265Y011521D01*
X017265Y013020D02*
X017265Y013321D01*
X017115Y013471D01*
X016965Y013321D01*
X016965Y013020D01*
X016965Y013246D02*
X017265Y013246D01*
X017425Y013396D02*
X017425Y013095D01*
X017500Y013020D01*
X017650Y013020D01*
X017725Y013095D01*
X017886Y013020D02*
X018186Y013471D01*
X018346Y013471D02*
X018346Y013020D01*
X018571Y013020D01*
X018646Y013095D01*
X018646Y013396D01*
X018571Y013471D01*
X018346Y013471D01*
X018806Y013396D02*
X018806Y013095D01*
X018881Y013020D01*
X019032Y013020D01*
X019107Y013095D01*
X019107Y013396D02*
X019032Y013471D01*
X018881Y013471D01*
X018806Y013396D01*
X017725Y013396D02*
X017650Y013471D01*
X017500Y013471D01*
X017425Y013396D01*
X013367Y011467D02*
X013291Y011542D01*
X013141Y011542D01*
X013066Y011467D01*
X013066Y011166D01*
X013141Y011091D01*
X013291Y011091D01*
X013367Y011166D01*
X012906Y011091D02*
X012906Y011391D01*
X012756Y011542D01*
X012606Y011391D01*
X012606Y011091D01*
X012446Y011016D02*
X012145Y011016D01*
X011985Y011091D02*
X011985Y011542D01*
X011685Y011542D02*
X011985Y011091D01*
X011685Y011091D02*
X011685Y011542D01*
X011525Y011542D02*
X011225Y011542D01*
X011225Y011091D01*
X011525Y011091D01*
X011375Y011316D02*
X011225Y011316D01*
X010710Y012120D02*
X010410Y012120D01*
X010560Y012120D02*
X010560Y012571D01*
X010410Y012421D01*
X012606Y011316D02*
X012906Y011316D01*
X012157Y008750D02*
X012006Y008750D01*
X011931Y008675D01*
X012157Y008750D02*
X012232Y008675D01*
X012232Y008600D01*
X011931Y008299D01*
X012232Y008299D01*
X013931Y008375D02*
X014006Y008299D01*
X014157Y008299D01*
X014232Y008375D01*
X014232Y008450D01*
X014157Y008525D01*
X014082Y008525D01*
X014157Y008525D02*
X014232Y008600D01*
X014232Y008675D01*
X014157Y008750D01*
X014006Y008750D01*
X013931Y008675D01*
X010232Y008299D02*
X009931Y008299D01*
X010082Y008299D02*
X010082Y008750D01*
X009931Y008600D01*
X010347Y004426D02*
X010245Y004324D01*
X010245Y004019D01*
X010856Y004019D01*
X010856Y004324D01*
X010754Y004426D01*
X010347Y004426D01*
X010245Y003818D02*
X010245Y003411D01*
X010856Y003411D01*
X010856Y003818D01*
X010551Y003615D02*
X010551Y003411D01*
X010551Y003210D02*
X010652Y003109D01*
X010652Y002803D01*
X010856Y002803D02*
X010245Y002803D01*
X010245Y003109D01*
X010347Y003210D01*
X010551Y003210D01*
X010652Y003007D02*
X010856Y003210D01*
X012245Y003210D02*
X012347Y003210D01*
X012551Y003007D01*
X012856Y003007D01*
X012551Y003007D02*
X012347Y002803D01*
X012245Y002803D01*
X012245Y003411D02*
X012856Y003411D01*
X012856Y003818D01*
X012856Y004019D02*
X012652Y004222D01*
X012856Y004426D01*
X012245Y004426D01*
X012245Y004019D02*
X012856Y004019D01*
X014533Y004019D02*
X015143Y004019D01*
X015143Y003818D02*
X015143Y003411D01*
X014533Y003411D01*
X014634Y003210D02*
X014736Y003210D01*
X014838Y003109D01*
X014838Y002803D01*
X015143Y002803D02*
X014533Y002803D01*
X014533Y003109D01*
X014634Y003210D01*
X014838Y003109D02*
X014940Y003210D01*
X015041Y003210D01*
X015143Y003109D01*
X015143Y002803D01*
X014940Y004019D02*
X014533Y004426D01*
X014838Y004121D02*
X015143Y004426D01*
X008220Y013253D02*
X008295Y013328D01*
X008295Y013403D01*
X008220Y013478D01*
X007994Y013478D01*
X007994Y013328D01*
X008069Y013253D01*
X008220Y013253D01*
X007994Y013478D02*
X008144Y013628D01*
X008295Y013703D01*
X005193Y013628D02*
X005193Y013328D01*
X005118Y013253D01*
X004968Y013253D01*
X004893Y013328D01*
X004968Y013478D02*
X005193Y013478D01*
X005193Y013628D02*
X005118Y013703D01*
X004968Y013703D01*
X004893Y013628D01*
X004893Y013553D01*
X004968Y013478D01*
X004733Y013253D02*
X004432Y013253D01*
X004583Y013253D02*
X004583Y013703D01*
X004432Y013553D01*
X004272Y013553D02*
X004272Y013628D01*
X004197Y013703D01*
X004047Y013703D01*
X003972Y013628D01*
X003812Y013553D02*
X003812Y013253D01*
X003972Y013253D02*
X004272Y013553D01*
X004272Y013253D02*
X003972Y013253D01*
X003812Y013478D02*
X003512Y013478D01*
X003512Y013553D02*
X003512Y013253D01*
X003352Y013253D02*
X003352Y013703D01*
X003512Y013553D02*
X003662Y013703D01*
X003812Y013553D01*
X003352Y013253D02*
X003051Y013703D01*
X003051Y013253D01*
X002894Y013253D02*
X002744Y013253D01*
X002819Y013253D02*
X002819Y013703D01*
X002744Y013703D02*
X002894Y013703D01*
X003144Y011903D02*
X003144Y011453D01*
X002994Y011453D02*
X003295Y011453D01*
X002994Y011753D02*
X003144Y011903D01*
X003117Y021693D02*
X003117Y022143D01*
X002967Y021993D01*
X002967Y021693D02*
X003267Y021693D01*
X003177Y023493D02*
X003177Y023943D01*
X003327Y023793D01*
X003477Y023943D01*
X003477Y023493D01*
X003638Y023493D02*
X003638Y023943D01*
X003863Y023943D01*
X003938Y023868D01*
X003938Y023718D01*
X003863Y023643D01*
X003638Y023643D01*
X004098Y023493D02*
X004398Y023793D01*
X004398Y023868D01*
X004323Y023943D01*
X004173Y023943D01*
X004098Y023868D01*
X004098Y023493D02*
X004398Y023493D01*
X004558Y023568D02*
X004558Y023643D01*
X004633Y023718D01*
X004784Y023718D01*
X004859Y023643D01*
X004859Y023568D01*
X004784Y023493D01*
X004633Y023493D01*
X004558Y023568D01*
X004633Y023718D02*
X004558Y023793D01*
X004558Y023868D01*
X004633Y023943D01*
X004784Y023943D01*
X004859Y023868D01*
X004859Y023793D01*
X004784Y023718D01*
X005019Y023568D02*
X005019Y023868D01*
X005094Y023943D01*
X005244Y023943D01*
X005319Y023868D01*
X005019Y023568D01*
X005094Y023493D01*
X005244Y023493D01*
X005319Y023568D01*
X005319Y023868D01*
X003017Y023868D02*
X003017Y023793D01*
X002942Y023718D01*
X002717Y023718D01*
X002942Y023718D02*
X003017Y023643D01*
X003017Y023568D01*
X002942Y023493D01*
X002717Y023493D01*
X002717Y023943D01*
X002942Y023943D01*
X003017Y023868D01*
X007967Y023718D02*
X008192Y023718D01*
X008267Y023643D01*
X008267Y023568D01*
X008192Y023493D01*
X008042Y023493D01*
X007967Y023568D01*
X007967Y023718D01*
X008117Y023868D01*
X008267Y023943D01*
X012669Y030967D02*
X012594Y031042D01*
X012594Y031193D01*
X012669Y031268D01*
X012745Y031268D01*
X013045Y030967D01*
X013045Y031268D01*
X013045Y032967D02*
X013045Y033268D01*
X013045Y033117D02*
X012594Y033117D01*
X012745Y032967D01*
X024542Y034811D02*
X024842Y034811D01*
X024692Y034811D02*
X024692Y035261D01*
X024542Y035111D01*
X024752Y036611D02*
X024752Y037061D01*
X024977Y037061D01*
X025052Y036986D01*
X025052Y036836D01*
X024977Y036761D01*
X024752Y036761D01*
X024902Y036761D02*
X025052Y036611D01*
X025212Y036686D02*
X025287Y036611D01*
X025438Y036611D01*
X025513Y036686D01*
X025513Y036986D01*
X025438Y037061D01*
X025287Y037061D01*
X025212Y036986D01*
X025212Y036686D01*
X025673Y036686D02*
X025673Y036986D01*
X025748Y037061D01*
X025898Y037061D01*
X025973Y036986D01*
X025973Y036836D02*
X025823Y036836D01*
X025973Y036836D02*
X025973Y036686D01*
X025898Y036611D01*
X025748Y036611D01*
X025673Y036686D01*
X026133Y036761D02*
X026358Y036761D01*
X026433Y036836D01*
X026433Y036986D01*
X026358Y037061D01*
X026133Y037061D01*
X026133Y036611D01*
X026283Y036761D02*
X026433Y036611D01*
X026594Y036611D02*
X026594Y036911D01*
X026744Y037061D01*
X026894Y036911D01*
X026894Y036611D01*
X027054Y036611D02*
X027054Y037061D01*
X027204Y036911D01*
X027354Y037061D01*
X027354Y036611D01*
X026894Y036836D02*
X026594Y036836D01*
X024592Y036836D02*
X024517Y036761D01*
X024292Y036761D01*
X024292Y036611D02*
X024292Y037061D01*
X024517Y037061D01*
X024592Y036986D01*
X024592Y036836D01*
X026252Y034384D02*
X026477Y034384D01*
X026553Y034309D01*
X026553Y034234D01*
X026477Y034159D01*
X026252Y034159D01*
X026252Y033934D02*
X026252Y034384D01*
X026477Y034159D02*
X026553Y034084D01*
X026553Y034009D01*
X026477Y033934D01*
X026252Y033934D01*
X026713Y034009D02*
X026713Y034309D01*
X026788Y034384D01*
X026938Y034384D01*
X027013Y034309D01*
X027013Y034009D01*
X026938Y033934D01*
X026788Y033934D01*
X026713Y034009D01*
X027173Y034009D02*
X027173Y034309D01*
X027248Y034384D01*
X027398Y034384D01*
X027473Y034309D01*
X027473Y034009D01*
X027398Y033934D01*
X027248Y033934D01*
X027173Y034009D01*
X027633Y034384D02*
X027934Y034384D01*
X027784Y034384D02*
X027784Y033934D01*
X025036Y032618D02*
X025036Y032168D01*
X024886Y032168D02*
X025186Y032168D01*
X024886Y032468D02*
X025036Y032618D01*
X029542Y036686D02*
X029617Y036611D01*
X029767Y036611D01*
X029842Y036686D01*
X029842Y036761D01*
X029767Y036836D01*
X029542Y036836D01*
X029542Y036686D01*
X029542Y036836D02*
X029692Y036986D01*
X029842Y037061D01*
D12*
X019767Y034786D02*
X019769Y034805D01*
X019774Y034824D01*
X019784Y034840D01*
X019796Y034855D01*
X019811Y034867D01*
X019827Y034877D01*
X019846Y034882D01*
X019865Y034884D01*
X019884Y034882D01*
X019903Y034877D01*
X019919Y034867D01*
X019934Y034855D01*
X019946Y034840D01*
X019956Y034824D01*
X019961Y034805D01*
X019963Y034786D01*
X019961Y034767D01*
X019956Y034748D01*
X019946Y034732D01*
X019934Y034717D01*
X019919Y034705D01*
X019903Y034695D01*
X019884Y034690D01*
X019865Y034688D01*
X019846Y034690D01*
X019827Y034695D01*
X019811Y034705D01*
X019796Y034717D01*
X019784Y034732D01*
X019774Y034748D01*
X019769Y034767D01*
X019767Y034786D01*
X019767Y003684D02*
X019769Y003703D01*
X019774Y003722D01*
X019784Y003738D01*
X019796Y003753D01*
X019811Y003765D01*
X019827Y003775D01*
X019846Y003780D01*
X019865Y003782D01*
X019884Y003780D01*
X019903Y003775D01*
X019919Y003765D01*
X019934Y003753D01*
X019946Y003738D01*
X019956Y003722D01*
X019961Y003703D01*
X019963Y003684D01*
X019961Y003665D01*
X019956Y003646D01*
X019946Y003630D01*
X019934Y003615D01*
X019919Y003603D01*
X019903Y003593D01*
X019884Y003588D01*
X019865Y003586D01*
X019846Y003588D01*
X019827Y003593D01*
X019811Y003603D01*
X019796Y003615D01*
X019784Y003630D01*
X019774Y003646D01*
X019769Y003665D01*
X019767Y003684D01*
D13*
X013369Y012582D02*
X013330Y012582D01*
X013330Y014117D01*
X012503Y014117D01*
X012503Y012700D01*
X012385Y012660D02*
X012188Y012660D01*
X012188Y014078D01*
X011361Y014078D01*
X011361Y014117D01*
X011322Y014117D01*
X011322Y012778D01*
X026912Y032503D02*
X026912Y033723D01*
X027700Y033723D01*
X027700Y032463D01*
X027818Y032463D01*
D14*
X013032Y014778D02*
X012908Y014778D01*
X012847Y014716D01*
X012847Y014469D01*
X012908Y014408D01*
X013032Y014408D01*
X013094Y014469D01*
X013094Y014716D02*
X013032Y014778D01*
X012725Y014716D02*
X012664Y014778D01*
X012478Y014778D01*
X012478Y014408D01*
X012664Y014408D01*
X012725Y014469D01*
X012725Y014716D01*
X011991Y014716D02*
X011930Y014778D01*
X011806Y014778D01*
X011744Y014716D01*
X011744Y014469D01*
X011806Y014408D01*
X011930Y014408D01*
X011991Y014469D01*
X011623Y014408D02*
X011623Y014654D01*
X011500Y014778D01*
X011376Y014654D01*
X011376Y014408D01*
X011376Y014593D02*
X011623Y014593D01*
D15*
X008841Y007677D02*
X008841Y007256D01*
X008841Y007467D02*
X009471Y007467D01*
X009471Y007032D02*
X008841Y007032D01*
X009156Y007032D02*
X009156Y006612D01*
X009156Y006388D02*
X009261Y006283D01*
X009261Y005967D01*
X009471Y005967D02*
X008841Y005967D01*
X008841Y006283D01*
X008946Y006388D01*
X009156Y006388D01*
X009261Y006177D02*
X009471Y006388D01*
X009471Y006612D02*
X008841Y006612D01*
X020262Y010306D02*
X020578Y010306D01*
X020683Y010411D01*
X020683Y010831D01*
X020578Y010936D01*
X020262Y010936D01*
X020262Y010306D01*
X020907Y010411D02*
X020907Y010831D01*
X021012Y010936D01*
X021222Y010936D01*
X021327Y010831D01*
X021327Y010411D02*
X021222Y010306D01*
X021012Y010306D01*
X020907Y010411D01*
X026750Y007632D02*
X026750Y007421D01*
X026855Y007316D01*
X027276Y007316D01*
X027381Y007421D01*
X027381Y007632D01*
X027276Y007737D01*
X026855Y007737D02*
X026750Y007632D01*
X026960Y007092D02*
X027381Y007092D01*
X027066Y007092D02*
X027066Y006672D01*
X026960Y006672D02*
X027381Y006672D01*
X026960Y006672D02*
X026750Y006882D01*
X026960Y007092D01*
X032101Y022407D02*
X032629Y022407D01*
X032893Y022539D02*
X033025Y022407D01*
X033289Y022407D01*
X033420Y022539D01*
X033420Y023066D01*
X033289Y023198D01*
X033025Y023198D01*
X032893Y023066D01*
X032893Y022539D01*
X032101Y022407D02*
X032101Y023198D01*
X033685Y023198D02*
X033685Y022407D01*
X033685Y022671D02*
X034081Y022671D01*
X034212Y022802D01*
X034212Y023066D01*
X034081Y023198D01*
X033685Y023198D01*
X034477Y023198D02*
X034477Y023066D01*
X034741Y022802D01*
X034741Y022407D01*
X034741Y022802D02*
X035004Y023066D01*
X035004Y023198D01*
X035269Y022802D02*
X035796Y022802D01*
X035664Y022407D02*
X035664Y023198D01*
X035269Y022802D01*
X028433Y029428D02*
X028170Y029428D01*
X028038Y029559D01*
X028038Y029823D01*
X028170Y029955D01*
X028433Y029955D01*
X028565Y029823D01*
X028565Y029691D01*
X028038Y029691D01*
X027773Y029428D02*
X027378Y029428D01*
X027246Y029559D01*
X027246Y029823D01*
X027378Y029955D01*
X027773Y029955D01*
X027773Y030218D02*
X027773Y029428D01*
X026981Y029559D02*
X026981Y029823D01*
X026850Y029955D01*
X026586Y029955D01*
X026454Y029823D01*
X026454Y029559D01*
X026586Y029428D01*
X026850Y029428D01*
X026981Y029559D01*
X026190Y029428D02*
X026190Y030218D01*
X025662Y030218D02*
X026190Y029428D01*
X025662Y029428D02*
X025662Y030218D01*
X024606Y030218D02*
X024606Y029428D01*
X024210Y029428D01*
X024079Y029559D01*
X024079Y029823D01*
X024210Y029955D01*
X024606Y029955D01*
X023814Y029823D02*
X023814Y029428D01*
X023814Y029823D02*
X023682Y029955D01*
X023287Y029955D01*
X023287Y029428D01*
X023022Y029428D02*
X022495Y029428D01*
X022495Y030218D01*
X023022Y030218D01*
X022758Y029823D02*
X022495Y029823D01*
X021438Y029428D02*
X021438Y030218D01*
X020911Y030218D02*
X021438Y029428D01*
X020911Y029428D02*
X020911Y030218D01*
X020646Y029955D02*
X020646Y029428D01*
X020646Y029823D02*
X020119Y029823D01*
X020119Y029955D02*
X020383Y030218D01*
X020646Y029955D01*
X020119Y029955D02*
X020119Y029428D01*
X019855Y029428D02*
X019855Y030218D01*
X019327Y030218D02*
X019327Y029428D01*
X019591Y029691D01*
X019855Y029428D01*
X019063Y029428D02*
X018667Y029428D01*
X018536Y029559D01*
X018667Y029691D01*
X019063Y029691D01*
X019063Y029823D02*
X019063Y029428D01*
X019063Y029823D02*
X018931Y029955D01*
X018667Y029955D01*
X018271Y030086D02*
X018139Y030218D01*
X017744Y030218D01*
X017744Y029428D01*
X017744Y029691D02*
X018139Y029691D01*
X018271Y029823D01*
X018271Y030086D01*
X018007Y029691D02*
X018271Y029428D01*
X017479Y029559D02*
X017479Y029823D01*
X017347Y029955D01*
X017084Y029955D01*
X016952Y029823D01*
X016952Y029559D01*
X017084Y029428D01*
X017347Y029428D01*
X017479Y029559D01*
X016687Y029428D02*
X016160Y029428D01*
X016160Y030218D01*
X014244Y033818D02*
X014244Y034448D01*
X013824Y034448D02*
X013824Y033818D01*
X013604Y033818D02*
X013394Y033818D01*
X013499Y033818D02*
X013499Y034448D01*
X013394Y034448D02*
X013604Y034448D01*
X013824Y034448D02*
X014244Y033818D01*
X013170Y033818D02*
X013170Y034238D01*
X012959Y034448D01*
X012749Y034238D01*
X012749Y033818D01*
X012525Y033818D02*
X012315Y034028D01*
X012420Y034028D02*
X012105Y034028D01*
X012105Y033818D02*
X012105Y034448D01*
X012420Y034448D01*
X012525Y034343D01*
X012525Y034133D01*
X012420Y034028D01*
X012749Y034133D02*
X013170Y034133D01*
D16*
X019367Y034786D02*
X019369Y034830D01*
X019375Y034874D01*
X019384Y034917D01*
X019398Y034959D01*
X019415Y034999D01*
X019436Y035038D01*
X019460Y035075D01*
X019487Y035110D01*
X019517Y035142D01*
X019550Y035171D01*
X019585Y035198D01*
X019622Y035221D01*
X019662Y035241D01*
X019703Y035257D01*
X019745Y035269D01*
X019788Y035278D01*
X019832Y035283D01*
X019876Y035284D01*
X019920Y035281D01*
X019964Y035274D01*
X020006Y035264D01*
X020048Y035249D01*
X020088Y035231D01*
X020127Y035210D01*
X020163Y035185D01*
X020197Y035157D01*
X020229Y035126D01*
X020257Y035093D01*
X020283Y035057D01*
X020305Y035019D01*
X020324Y034979D01*
X020339Y034938D01*
X020351Y034895D01*
X020359Y034852D01*
X020363Y034808D01*
X020363Y034764D01*
X020359Y034720D01*
X020351Y034677D01*
X020339Y034634D01*
X020324Y034593D01*
X020305Y034553D01*
X020283Y034515D01*
X020257Y034479D01*
X020229Y034446D01*
X020197Y034415D01*
X020163Y034387D01*
X020127Y034362D01*
X020088Y034341D01*
X020048Y034323D01*
X020006Y034308D01*
X019964Y034298D01*
X019920Y034291D01*
X019876Y034288D01*
X019832Y034289D01*
X019788Y034294D01*
X019745Y034303D01*
X019703Y034315D01*
X019662Y034331D01*
X019622Y034351D01*
X019585Y034374D01*
X019550Y034401D01*
X019517Y034430D01*
X019487Y034462D01*
X019460Y034497D01*
X019436Y034534D01*
X019415Y034573D01*
X019398Y034613D01*
X019384Y034655D01*
X019375Y034698D01*
X019369Y034742D01*
X019367Y034786D01*
X019416Y003684D02*
X019418Y003726D01*
X019424Y003768D01*
X019434Y003809D01*
X019447Y003849D01*
X019464Y003887D01*
X019485Y003924D01*
X019509Y003958D01*
X019537Y003990D01*
X019567Y004020D01*
X019599Y004046D01*
X019634Y004069D01*
X019672Y004089D01*
X019710Y004106D01*
X019750Y004118D01*
X019792Y004127D01*
X019833Y004132D01*
X019876Y004133D01*
X019918Y004130D01*
X019959Y004123D01*
X020000Y004112D01*
X020039Y004098D01*
X020077Y004080D01*
X020113Y004058D01*
X020147Y004033D01*
X020179Y004005D01*
X020207Y003974D01*
X020233Y003941D01*
X020256Y003905D01*
X020275Y003868D01*
X020290Y003829D01*
X020302Y003788D01*
X020310Y003747D01*
X020314Y003705D01*
X020314Y003663D01*
X020310Y003621D01*
X020302Y003580D01*
X020290Y003539D01*
X020275Y003500D01*
X020256Y003463D01*
X020233Y003427D01*
X020207Y003394D01*
X020179Y003363D01*
X020147Y003335D01*
X020113Y003310D01*
X020077Y003288D01*
X020039Y003270D01*
X020000Y003256D01*
X019959Y003245D01*
X019918Y003238D01*
X019876Y003235D01*
X019833Y003236D01*
X019792Y003241D01*
X019750Y003250D01*
X019710Y003262D01*
X019672Y003279D01*
X019634Y003299D01*
X019599Y003322D01*
X019567Y003348D01*
X019537Y003378D01*
X019509Y003410D01*
X019485Y003444D01*
X019464Y003481D01*
X019447Y003519D01*
X019434Y003559D01*
X019424Y003600D01*
X019418Y003642D01*
X019416Y003684D01*
D17*
X015908Y021078D02*
X015908Y028952D01*
X037562Y028952D01*
X037562Y021078D01*
X015908Y021078D01*
D18*
X019688Y020881D02*
X019688Y020881D01*
X019690Y020870D01*
X019694Y020860D01*
X019701Y020852D01*
X019711Y020846D01*
X019721Y020842D01*
X019733Y020842D01*
X019743Y020846D01*
X019753Y020852D01*
X019760Y020860D01*
X019764Y020870D01*
X019766Y020881D01*
X019767Y020881D02*
X019767Y020881D01*
X019766Y020881D02*
X019764Y020892D01*
X019760Y020902D01*
X019753Y020910D01*
X019743Y020916D01*
X019733Y020920D01*
X019721Y020920D01*
X019711Y020916D01*
X019701Y020910D01*
X019694Y020902D01*
X019690Y020892D01*
X019688Y020881D01*
D19*
X017467Y021415D02*
X017161Y021415D01*
X017314Y021415D02*
X017314Y021875D01*
X017161Y021721D01*
X017007Y021798D02*
X016930Y021875D01*
X016777Y021875D01*
X016700Y021798D01*
X016700Y021491D01*
X016777Y021415D01*
X016930Y021415D01*
X017007Y021491D01*
X016547Y021415D02*
X016393Y021415D01*
X016470Y021415D02*
X016470Y021875D01*
X016393Y021875D02*
X016547Y021875D01*
M02*
