%
M48
M72
T01C0.0197
T02C0.0400
T03C0.0402
T04C0.0520
%
T01
X19865Y3684
X19865Y34786
T02
X24767Y35936
X25767Y35936
X26767Y35936
X27767Y35936
X28767Y35936
X29767Y35936
X27861Y32393
X26861Y32393
X25861Y32393
X8192Y22818
X7192Y22818
X6192Y22818
X5192Y22818
X4192Y22818
X3192Y22818
X3219Y12578
X4219Y12578
X5219Y12578
X6219Y12578
X7219Y12578
X8219Y12578
X11385Y12345
X12385Y12345
X13385Y12345
X17440Y12345
X18440Y12345
X19440Y12345
X20440Y12345
X21440Y12345
X22440Y12345
X23440Y12345
X24440Y12345
X25440Y12345
X30145Y12487
X31145Y12487
X32145Y12487
X33145Y12487
X34145Y12487
X35145Y12487
X36145Y12487
X37145Y12487
T03
X32735Y21515
X31735Y21515
X30735Y21515
X29735Y21515
X28735Y21515
X27735Y21515
X26735Y21515
X25735Y21515
X24735Y21515
X23735Y21515
X22735Y21515
X21735Y21515
X20735Y21515
X19735Y21515
X19735Y28515
X20735Y28515
X21735Y28515
X22735Y28515
X23735Y28515
X24735Y28515
X25735Y28515
X26735Y28515
X27735Y28515
X28735Y28515
X29735Y28515
X30735Y28515
X31735Y28515
X32735Y28515
T04
X10686Y7774
X12656Y7774
X14626Y7774
X21237Y7621
X23207Y7621
X26214Y7711
X28184Y7711
X12070Y30653
X12070Y32623
M30
