G75*
%MOIN*%
%OFA0B0*%
%FSLAX24Y24*%
%IPPOS*%
%LPD*%
%AMOC8*
5,1,8,0,0,1.08239X$1,22.5*
%
%ADD10C,0.0277*%
%ADD11C,0.0682*%
%ADD12C,0.0860*%
%ADD13C,0.0680*%
D10*
X019865Y003684D03*
X019865Y034786D03*
D11*
X019735Y028515D03*
X020735Y028515D03*
X021735Y028515D03*
X022735Y028515D03*
X023735Y028515D03*
X024735Y028515D03*
X025735Y028515D03*
X026735Y028515D03*
X027735Y028515D03*
X028735Y028515D03*
X029735Y028515D03*
X030735Y028515D03*
X031735Y028515D03*
X032735Y028515D03*
X032735Y021515D03*
X031735Y021515D03*
X030735Y021515D03*
X029735Y021515D03*
X028735Y021515D03*
X027735Y021515D03*
X026735Y021515D03*
X025735Y021515D03*
X024735Y021515D03*
X023735Y021515D03*
X022735Y021515D03*
X021735Y021515D03*
X020735Y021515D03*
X019735Y021515D03*
D12*
X010686Y008164D02*
X010686Y007384D01*
X012656Y007384D02*
X012656Y008164D01*
X014626Y008164D02*
X014626Y007384D01*
X021237Y007231D02*
X021237Y008011D01*
X023207Y008011D02*
X023207Y007231D01*
X026214Y007321D02*
X026214Y008101D01*
X028184Y008101D02*
X028184Y007321D01*
X012460Y030653D02*
X011680Y030653D01*
X011680Y032623D02*
X012460Y032623D01*
D13*
X008192Y023118D02*
X008192Y022518D01*
X007192Y022518D02*
X007192Y023118D01*
X006192Y023118D02*
X006192Y022518D01*
X005192Y022518D02*
X005192Y023118D01*
X004192Y023118D02*
X004192Y022518D01*
X003192Y022518D02*
X003192Y023118D01*
X003219Y012878D02*
X003219Y012278D01*
X004219Y012278D02*
X004219Y012878D01*
X005219Y012878D02*
X005219Y012278D01*
X006219Y012278D02*
X006219Y012878D01*
X007219Y012878D02*
X007219Y012278D01*
X008219Y012278D02*
X008219Y012878D01*
X011385Y012645D02*
X011385Y012045D01*
X012385Y012045D02*
X012385Y012645D01*
X013385Y012645D02*
X013385Y012045D01*
X017440Y012045D02*
X017440Y012645D01*
X018440Y012645D02*
X018440Y012045D01*
X019440Y012045D02*
X019440Y012645D01*
X020440Y012645D02*
X020440Y012045D01*
X021440Y012045D02*
X021440Y012645D01*
X022440Y012645D02*
X022440Y012045D01*
X023440Y012045D02*
X023440Y012645D01*
X024440Y012645D02*
X024440Y012045D01*
X025440Y012045D02*
X025440Y012645D01*
X030145Y012787D02*
X030145Y012187D01*
X031145Y012187D02*
X031145Y012787D01*
X032145Y012787D02*
X032145Y012187D01*
X033145Y012187D02*
X033145Y012787D01*
X034145Y012787D02*
X034145Y012187D01*
X035145Y012187D02*
X035145Y012787D01*
X036145Y012787D02*
X036145Y012187D01*
X037145Y012187D02*
X037145Y012787D01*
X027861Y032093D02*
X027861Y032693D01*
X026861Y032693D02*
X026861Y032093D01*
X025861Y032093D02*
X025861Y032693D01*
X025767Y035636D02*
X025767Y036236D01*
X024767Y036236D02*
X024767Y035636D01*
X026767Y035636D02*
X026767Y036236D01*
X027767Y036236D02*
X027767Y035636D01*
X028767Y035636D02*
X028767Y036236D01*
X029767Y036236D02*
X029767Y035636D01*
M02*
