G75*
%MOIN*%
%OFA0B0*%
%FSLAX24Y24*%
%IPPOS*%
%LPD*%
%AMOC8*
5,1,8,0,0,1.08239X$1,22.5*
%
%ADD10C,0.0602*%
%ADD11C,0.0780*%
%ADD12C,0.0600*%
%ADD13C,0.0200*%
%ADD14C,0.0100*%
%ADD15C,0.0160*%
D10*
X019735Y021515D03*
X020735Y021515D03*
X021735Y021515D03*
X022735Y021515D03*
X023735Y021515D03*
X024735Y021515D03*
X025735Y021515D03*
X026735Y021515D03*
X027735Y021515D03*
X028735Y021515D03*
X029735Y021515D03*
X030735Y021515D03*
X031735Y021515D03*
X032735Y021515D03*
X032735Y028515D03*
X031735Y028515D03*
X030735Y028515D03*
X029735Y028515D03*
X028735Y028515D03*
X027735Y028515D03*
X026735Y028515D03*
X025735Y028515D03*
X024735Y028515D03*
X023735Y028515D03*
X022735Y028515D03*
X021735Y028515D03*
X020735Y028515D03*
X019735Y028515D03*
D11*
X012460Y030653D02*
X011680Y030653D01*
X011680Y032623D02*
X012460Y032623D01*
X012656Y008164D02*
X012656Y007384D01*
X010686Y007384D02*
X010686Y008164D01*
X014626Y008164D02*
X014626Y007384D01*
X021237Y007231D02*
X021237Y008011D01*
X023207Y008011D02*
X023207Y007231D01*
X026214Y007321D02*
X026214Y008101D01*
X028184Y008101D02*
X028184Y007321D01*
D12*
X030145Y012187D02*
X030145Y012787D01*
X031145Y012787D02*
X031145Y012187D01*
X032145Y012187D02*
X032145Y012787D01*
X033145Y012787D02*
X033145Y012187D01*
X034145Y012187D02*
X034145Y012787D01*
X035145Y012787D02*
X035145Y012187D01*
X036145Y012187D02*
X036145Y012787D01*
X037145Y012787D02*
X037145Y012187D01*
X025440Y012045D02*
X025440Y012645D01*
X024440Y012645D02*
X024440Y012045D01*
X023440Y012045D02*
X023440Y012645D01*
X022440Y012645D02*
X022440Y012045D01*
X021440Y012045D02*
X021440Y012645D01*
X020440Y012645D02*
X020440Y012045D01*
X019440Y012045D02*
X019440Y012645D01*
X018440Y012645D02*
X018440Y012045D01*
X017440Y012045D02*
X017440Y012645D01*
X013385Y012645D02*
X013385Y012045D01*
X012385Y012045D02*
X012385Y012645D01*
X011385Y012645D02*
X011385Y012045D01*
X008219Y012278D02*
X008219Y012878D01*
X007219Y012878D02*
X007219Y012278D01*
X006219Y012278D02*
X006219Y012878D01*
X005219Y012878D02*
X005219Y012278D01*
X004219Y012278D02*
X004219Y012878D01*
X003219Y012878D02*
X003219Y012278D01*
X003192Y022518D02*
X003192Y023118D01*
X004192Y023118D02*
X004192Y022518D01*
X005192Y022518D02*
X005192Y023118D01*
X006192Y023118D02*
X006192Y022518D01*
X007192Y022518D02*
X007192Y023118D01*
X008192Y023118D02*
X008192Y022518D01*
X024767Y035636D02*
X024767Y036236D01*
X025767Y036236D02*
X025767Y035636D01*
X026767Y035636D02*
X026767Y036236D01*
X027767Y036236D02*
X027767Y035636D01*
X028767Y035636D02*
X028767Y036236D01*
X029767Y036236D02*
X029767Y035636D01*
X027861Y032693D02*
X027861Y032093D01*
X026861Y032093D02*
X026861Y032693D01*
X025861Y032693D02*
X025861Y032093D01*
D13*
X027861Y032393D02*
X027860Y032421D01*
X027860Y033821D01*
X025780Y035901D01*
X025767Y035936D01*
X020740Y029181D02*
X009580Y029181D01*
X003260Y022861D01*
X003192Y022818D01*
X003220Y022781D01*
X003220Y013541D01*
X003740Y013021D01*
X003740Y012101D01*
X007220Y008621D01*
X009820Y008621D01*
X010660Y007781D01*
X010686Y007774D01*
X013820Y007781D02*
X009820Y011781D01*
X005060Y011781D01*
X004300Y012541D01*
X004219Y012578D01*
X004220Y012581D01*
X004220Y022781D01*
X004192Y022818D01*
X012385Y012345D02*
X012420Y012341D01*
X017100Y007661D01*
X021220Y007661D01*
X021237Y007621D01*
X023207Y007621D02*
X023220Y007621D01*
X024100Y006741D01*
X026420Y006741D01*
X026780Y007101D01*
X026780Y007501D01*
X030140Y010861D01*
X030140Y012461D01*
X030145Y012487D01*
X025460Y012341D02*
X025460Y008461D01*
X026180Y007741D01*
X026214Y007711D01*
X025460Y012341D02*
X025440Y012345D01*
X014626Y007774D02*
X014620Y007781D01*
X013820Y007781D01*
X021380Y028541D02*
X020740Y029181D01*
X021380Y028541D02*
X021700Y028541D01*
X021735Y028515D01*
D14*
X022300Y028541D02*
X018220Y032621D01*
X012100Y032621D01*
X012070Y032623D01*
X012300Y028941D02*
X006220Y022861D01*
X006192Y022818D01*
X006180Y022781D01*
X006180Y012581D01*
X006219Y012578D01*
X005219Y012578D02*
X005180Y012581D01*
X005180Y022781D01*
X005192Y022818D01*
X007220Y016021D02*
X019700Y028501D01*
X019735Y028515D01*
X020180Y028461D02*
X020180Y028661D01*
X019900Y028941D01*
X012300Y028941D01*
X020180Y028461D02*
X020540Y028101D01*
X023940Y028101D01*
X024340Y028501D01*
X024700Y028501D01*
X024735Y028515D01*
X022735Y028515D02*
X022700Y028541D01*
X022300Y028541D01*
X023735Y021515D02*
X023740Y021501D01*
X031140Y014101D01*
X031140Y012501D01*
X031145Y012487D01*
X032140Y012501D02*
X032145Y012487D01*
X032140Y012501D02*
X032140Y014101D01*
X024740Y021501D01*
X024735Y021515D01*
X017740Y013061D02*
X018420Y012381D01*
X018440Y012345D01*
X017740Y013061D02*
X012220Y013061D01*
X011540Y012381D01*
X011420Y012381D01*
X011385Y012345D01*
X007220Y012581D02*
X007219Y012578D01*
X007220Y012581D02*
X007220Y016021D01*
D15*
X008446Y008179D02*
X008446Y000651D01*
X031339Y000651D01*
X031339Y008073D01*
X031417Y008260D01*
X031560Y008404D01*
X031748Y008481D01*
X039040Y008481D01*
X039040Y030981D01*
X031642Y030981D01*
X031454Y031059D01*
X031311Y031202D01*
X031233Y031390D01*
X031233Y039001D01*
X020584Y039001D01*
X020584Y036752D01*
X020506Y036564D01*
X020363Y036421D01*
X020175Y036343D01*
X007359Y036343D01*
X007359Y031699D01*
X007359Y031496D01*
X007282Y031308D01*
X007138Y031165D01*
X006951Y031087D01*
X000690Y031087D01*
X000690Y008588D01*
X006914Y008588D01*
X003537Y011965D01*
X003534Y011970D01*
X003469Y011905D01*
X003307Y011838D01*
X003132Y011838D01*
X002970Y011905D01*
X002846Y012028D01*
X002779Y012190D01*
X002779Y012965D01*
X002846Y013127D01*
X002970Y013251D01*
X003112Y013309D01*
X003017Y013405D01*
X002980Y013493D01*
X002980Y022129D01*
X002943Y022145D01*
X002819Y022269D01*
X002752Y022430D01*
X002752Y023205D01*
X002819Y023367D01*
X002943Y023491D01*
X003104Y023558D01*
X003279Y023558D01*
X003441Y023491D01*
X003496Y023436D01*
X009444Y029384D01*
X009532Y029421D01*
X020788Y029421D01*
X020876Y029384D01*
X020943Y029317D01*
X021428Y028832D01*
X021485Y028889D01*
X021625Y028947D01*
X018141Y032431D01*
X012954Y032431D01*
X012909Y032323D01*
X012760Y032173D01*
X012565Y032093D01*
X011574Y032093D01*
X011380Y032173D01*
X011230Y032323D01*
X011150Y032517D01*
X011150Y032728D01*
X011230Y032923D01*
X011380Y033072D01*
X011574Y033153D01*
X012565Y033153D01*
X012760Y033072D01*
X012909Y032923D01*
X012956Y032811D01*
X018299Y032811D01*
X018410Y032699D01*
X022356Y028753D01*
X022361Y028765D01*
X022485Y028889D01*
X022647Y028956D01*
X022823Y028956D01*
X022985Y028889D01*
X023109Y028765D01*
X023176Y028602D01*
X023176Y028427D01*
X023120Y028291D01*
X023350Y028291D01*
X023294Y028427D01*
X023294Y028602D01*
X023361Y028765D01*
X023485Y028889D01*
X023647Y028956D01*
X023823Y028956D01*
X023985Y028889D01*
X024109Y028765D01*
X024175Y028605D01*
X024261Y028691D01*
X024330Y028691D01*
X024361Y028765D01*
X024485Y028889D01*
X024647Y028956D01*
X024823Y028956D01*
X024985Y028889D01*
X025109Y028765D01*
X025176Y028602D01*
X025176Y028427D01*
X025109Y028265D01*
X024985Y028141D01*
X024823Y028073D01*
X024647Y028073D01*
X024485Y028141D01*
X024367Y028259D01*
X024130Y028022D01*
X024019Y027911D01*
X020461Y027911D01*
X020108Y028264D01*
X019985Y028141D01*
X019823Y028073D01*
X019647Y028073D01*
X019573Y028104D01*
X007410Y015942D01*
X007410Y013275D01*
X007469Y013251D01*
X007592Y013127D01*
X007659Y012965D01*
X007659Y012190D01*
X007592Y012028D01*
X007847Y012028D01*
X007846Y012028D02*
X007854Y012021D01*
X007585Y012021D01*
X007592Y012028D01*
X007658Y012187D02*
X007781Y012187D01*
X007779Y012190D02*
X007846Y012028D01*
X007779Y012190D02*
X007779Y012965D01*
X007846Y013127D01*
X007970Y013251D01*
X008132Y013318D01*
X008307Y013318D01*
X008469Y013251D01*
X008592Y013127D01*
X008659Y012965D01*
X008659Y012190D01*
X008592Y012028D01*
X010945Y012028D01*
X010945Y011958D02*
X011012Y011796D01*
X011135Y011672D01*
X011297Y011605D01*
X011472Y011605D01*
X011634Y011672D01*
X011758Y011796D01*
X011825Y011958D01*
X011825Y012397D01*
X011945Y012517D01*
X011945Y011958D01*
X012012Y011796D01*
X012135Y011672D01*
X012297Y011605D01*
X012472Y011605D01*
X012634Y011672D01*
X012691Y011730D01*
X016897Y007525D01*
X016964Y007457D01*
X017052Y007421D01*
X020707Y007421D01*
X020707Y007126D01*
X020788Y006931D01*
X020937Y006782D01*
X021132Y006701D01*
X021343Y006701D01*
X021537Y006782D01*
X021687Y006931D01*
X021767Y007126D01*
X021767Y008116D01*
X021687Y008311D01*
X021537Y008460D01*
X021343Y008541D01*
X021132Y008541D01*
X020937Y008460D01*
X020788Y008311D01*
X020707Y008116D01*
X020707Y007901D01*
X017199Y007901D01*
X013488Y011612D01*
X013634Y011672D01*
X013758Y011796D01*
X013825Y011958D01*
X013825Y012733D01*
X013768Y012871D01*
X017057Y012871D01*
X017000Y012733D01*
X017000Y011958D01*
X017067Y011796D01*
X017191Y011672D01*
X017352Y011605D01*
X017527Y011605D01*
X017689Y011672D01*
X017813Y011796D01*
X017880Y011958D01*
X017880Y012652D01*
X018000Y012532D01*
X018000Y011958D01*
X018067Y011796D01*
X018191Y011672D01*
X018352Y011605D01*
X018527Y011605D01*
X018689Y011672D01*
X018813Y011796D01*
X018880Y011958D01*
X018880Y012733D01*
X018813Y012895D01*
X018689Y013018D01*
X018527Y013085D01*
X018352Y013085D01*
X018191Y013018D01*
X018121Y012949D01*
X017819Y013251D01*
X012141Y013251D01*
X012030Y013139D01*
X011766Y012875D01*
X011758Y012895D01*
X011634Y013018D01*
X011472Y013085D01*
X011297Y013085D01*
X011135Y013018D01*
X011012Y012895D01*
X010945Y012733D01*
X010945Y011958D01*
X010981Y011870D02*
X010070Y011870D01*
X010023Y011917D02*
X009956Y011984D01*
X009868Y012021D01*
X008585Y012021D01*
X008592Y012028D01*
X008658Y012187D02*
X010945Y012187D01*
X010945Y012345D02*
X008659Y012345D01*
X008659Y012504D02*
X010945Y012504D01*
X010945Y012662D02*
X008659Y012662D01*
X008659Y012821D02*
X010981Y012821D01*
X011096Y012979D02*
X008654Y012979D01*
X008582Y013138D02*
X012028Y013138D01*
X011870Y012979D02*
X011673Y012979D01*
X011932Y012504D02*
X011945Y012504D01*
X011945Y012345D02*
X011825Y012345D01*
X011825Y012187D02*
X011945Y012187D01*
X011945Y012028D02*
X011825Y012028D01*
X011788Y011870D02*
X011981Y011870D01*
X012097Y011711D02*
X011673Y011711D01*
X011097Y011711D02*
X010229Y011711D01*
X010387Y011553D02*
X012869Y011553D01*
X013027Y011394D02*
X010546Y011394D01*
X010704Y011236D02*
X013186Y011236D01*
X013344Y011077D02*
X010863Y011077D01*
X011021Y010919D02*
X013503Y010919D01*
X013661Y010760D02*
X011180Y010760D01*
X011338Y010602D02*
X013820Y010602D01*
X013978Y010443D02*
X011497Y010443D01*
X011655Y010285D02*
X014137Y010285D01*
X014295Y010126D02*
X011814Y010126D01*
X011972Y009968D02*
X014454Y009968D01*
X014612Y009809D02*
X012131Y009809D01*
X012289Y009651D02*
X014771Y009651D01*
X014929Y009492D02*
X012448Y009492D01*
X012606Y009334D02*
X015088Y009334D01*
X015246Y009175D02*
X012765Y009175D01*
X012923Y009017D02*
X015405Y009017D01*
X015563Y008858D02*
X013082Y008858D01*
X013240Y008700D02*
X015722Y008700D01*
X015880Y008541D02*
X014999Y008541D01*
X014927Y008614D02*
X014732Y008694D01*
X014521Y008694D01*
X014326Y008614D01*
X014177Y008465D01*
X014096Y008270D01*
X014096Y008021D01*
X013919Y008021D01*
X010023Y011917D01*
X009721Y011541D02*
X012567Y008694D01*
X012551Y008694D01*
X012356Y008614D01*
X012207Y008465D01*
X012126Y008270D01*
X012126Y007279D01*
X012207Y007084D01*
X012356Y006935D01*
X012551Y006854D01*
X012762Y006854D01*
X012957Y006935D01*
X013106Y007084D01*
X013186Y007279D01*
X013186Y008075D01*
X013684Y007577D01*
X013772Y007541D01*
X014096Y007541D01*
X014096Y007279D01*
X014177Y007084D01*
X014326Y006935D01*
X014521Y006854D01*
X014732Y006854D01*
X014927Y006935D01*
X015076Y007084D01*
X015156Y007279D01*
X015156Y008270D01*
X015076Y008465D01*
X014927Y008614D01*
X015110Y008383D02*
X016039Y008383D01*
X016197Y008224D02*
X015156Y008224D01*
X015156Y008066D02*
X016356Y008066D01*
X016514Y007907D02*
X015156Y007907D01*
X015156Y007749D02*
X016673Y007749D01*
X016831Y007590D02*
X015156Y007590D01*
X015156Y007432D02*
X017026Y007432D01*
X017193Y007907D02*
X020707Y007907D01*
X020707Y008066D02*
X017034Y008066D01*
X016876Y008224D02*
X020752Y008224D01*
X020859Y008383D02*
X016717Y008383D01*
X016559Y008541D02*
X025220Y008541D01*
X025220Y008413D02*
X025257Y008325D01*
X025684Y007898D01*
X025684Y007216D01*
X025764Y007021D01*
X025805Y006981D01*
X024199Y006981D01*
X023737Y007443D01*
X023737Y008116D01*
X023657Y008311D01*
X023507Y008460D01*
X023313Y008541D01*
X023102Y008541D01*
X022907Y008460D01*
X022758Y008311D01*
X022677Y008116D01*
X022677Y007126D01*
X022758Y006931D01*
X022907Y006782D01*
X023102Y006701D01*
X023313Y006701D01*
X023507Y006782D01*
X023614Y006888D01*
X023964Y006537D01*
X024052Y006501D01*
X026468Y006501D01*
X026556Y006537D01*
X026623Y006605D01*
X026983Y006965D01*
X027020Y007053D01*
X027020Y007401D01*
X027654Y008035D01*
X027654Y007216D01*
X027734Y007021D01*
X027883Y006872D01*
X028078Y006791D01*
X028289Y006791D01*
X028484Y006872D01*
X028633Y007021D01*
X028714Y007216D01*
X028714Y008207D01*
X028633Y008402D01*
X028484Y008551D01*
X028289Y008631D01*
X028250Y008631D01*
X030343Y010725D01*
X030380Y010813D01*
X030380Y011808D01*
X030394Y011814D01*
X030518Y011938D01*
X030585Y012100D01*
X030585Y012875D01*
X030518Y013036D01*
X030394Y013160D01*
X030232Y013227D01*
X030057Y013227D01*
X029895Y013160D01*
X029772Y013036D01*
X029705Y012875D01*
X029705Y012100D01*
X029772Y011938D01*
X029895Y011814D01*
X029900Y011812D01*
X029900Y010960D01*
X026744Y007804D01*
X026744Y008207D01*
X026663Y008402D01*
X026514Y008551D01*
X026319Y008631D01*
X026108Y008631D01*
X025913Y008551D01*
X025811Y008449D01*
X025700Y008560D01*
X025700Y011683D01*
X025813Y011796D01*
X025880Y011958D01*
X025880Y012733D01*
X025813Y012895D01*
X025689Y013018D01*
X025527Y013085D01*
X025352Y013085D01*
X025191Y013018D01*
X025067Y012895D01*
X025000Y012733D01*
X025000Y011958D01*
X025067Y011796D01*
X025191Y011672D01*
X025220Y011660D01*
X025220Y008413D01*
X025233Y008383D02*
X023585Y008383D01*
X023693Y008224D02*
X025357Y008224D01*
X025516Y008066D02*
X023737Y008066D01*
X023737Y007907D02*
X025674Y007907D01*
X025684Y007749D02*
X023737Y007749D01*
X023737Y007590D02*
X025684Y007590D01*
X025684Y007432D02*
X023748Y007432D01*
X023907Y007273D02*
X025684Y007273D01*
X025726Y007115D02*
X024065Y007115D01*
X023704Y006798D02*
X023523Y006798D01*
X023862Y006639D02*
X008446Y006639D01*
X008446Y006481D02*
X031339Y006481D01*
X031339Y006639D02*
X026658Y006639D01*
X026816Y006798D02*
X028063Y006798D01*
X028304Y006798D02*
X031339Y006798D01*
X031339Y006956D02*
X028568Y006956D01*
X028672Y007115D02*
X031339Y007115D01*
X031339Y007273D02*
X028714Y007273D01*
X028714Y007432D02*
X031339Y007432D01*
X031339Y007590D02*
X028714Y007590D01*
X028714Y007749D02*
X031339Y007749D01*
X031339Y007907D02*
X028714Y007907D01*
X028714Y008066D02*
X031339Y008066D01*
X031402Y008224D02*
X028706Y008224D01*
X028641Y008383D02*
X031539Y008383D01*
X029903Y010285D02*
X039040Y010285D01*
X039040Y010443D02*
X030062Y010443D01*
X030220Y010602D02*
X039040Y010602D01*
X039040Y010760D02*
X030358Y010760D01*
X030380Y010919D02*
X039040Y010919D01*
X039040Y011077D02*
X030380Y011077D01*
X030380Y011236D02*
X039040Y011236D01*
X039040Y011394D02*
X030380Y011394D01*
X030380Y011553D02*
X039040Y011553D01*
X039040Y011711D02*
X030380Y011711D01*
X030449Y011870D02*
X030840Y011870D01*
X030895Y011814D02*
X031057Y011747D01*
X031232Y011747D01*
X031394Y011814D01*
X031518Y011938D01*
X031585Y012100D01*
X031585Y012875D01*
X031518Y013036D01*
X031394Y013160D01*
X031330Y013187D01*
X031330Y014179D01*
X024149Y021361D01*
X024176Y021427D01*
X024176Y021602D01*
X024109Y021765D01*
X023985Y021889D01*
X023823Y021956D01*
X023647Y021956D01*
X023485Y021889D01*
X023361Y021765D01*
X023294Y021602D01*
X023294Y021427D01*
X023361Y021265D01*
X023485Y021141D01*
X023647Y021073D01*
X023823Y021073D01*
X023876Y021096D01*
X030950Y014022D01*
X030950Y013183D01*
X030895Y013160D01*
X030772Y013036D01*
X030705Y012875D01*
X030705Y012100D01*
X030772Y011938D01*
X030895Y011814D01*
X030734Y012028D02*
X030555Y012028D01*
X030585Y012187D02*
X030705Y012187D01*
X030705Y012345D02*
X030585Y012345D01*
X030585Y012504D02*
X030705Y012504D01*
X030705Y012662D02*
X030585Y012662D01*
X030585Y012821D02*
X030705Y012821D01*
X030748Y012979D02*
X030541Y012979D01*
X030416Y013138D02*
X030873Y013138D01*
X030950Y013296D02*
X008359Y013296D01*
X008080Y013296D02*
X007410Y013296D01*
X007410Y013455D02*
X030950Y013455D01*
X030950Y013613D02*
X007410Y013613D01*
X007410Y013772D02*
X030950Y013772D01*
X030950Y013930D02*
X007410Y013930D01*
X007410Y014089D02*
X030883Y014089D01*
X030725Y014247D02*
X007410Y014247D01*
X007410Y014406D02*
X030566Y014406D01*
X030408Y014564D02*
X007410Y014564D01*
X007410Y014723D02*
X030249Y014723D01*
X030091Y014881D02*
X007410Y014881D01*
X007410Y015040D02*
X029932Y015040D01*
X029774Y015198D02*
X007410Y015198D01*
X007410Y015357D02*
X029615Y015357D01*
X029457Y015515D02*
X007410Y015515D01*
X007410Y015674D02*
X029298Y015674D01*
X029140Y015832D02*
X007410Y015832D01*
X007459Y015991D02*
X028981Y015991D01*
X028823Y016149D02*
X007617Y016149D01*
X007776Y016308D02*
X028664Y016308D01*
X028506Y016466D02*
X007934Y016466D01*
X008093Y016625D02*
X028347Y016625D01*
X028189Y016783D02*
X008251Y016783D01*
X008410Y016942D02*
X028030Y016942D01*
X027872Y017100D02*
X008568Y017100D01*
X008727Y017259D02*
X027713Y017259D01*
X027555Y017417D02*
X008885Y017417D01*
X009044Y017576D02*
X027396Y017576D01*
X027238Y017734D02*
X009202Y017734D01*
X009361Y017893D02*
X027079Y017893D01*
X026921Y018051D02*
X009519Y018051D01*
X009678Y018210D02*
X026762Y018210D01*
X026604Y018368D02*
X009836Y018368D01*
X009995Y018527D02*
X026445Y018527D01*
X026287Y018685D02*
X010153Y018685D01*
X010312Y018844D02*
X026128Y018844D01*
X025970Y019002D02*
X010470Y019002D01*
X010629Y019161D02*
X025811Y019161D01*
X025653Y019319D02*
X010787Y019319D01*
X010946Y019478D02*
X025494Y019478D01*
X025336Y019636D02*
X011104Y019636D01*
X011263Y019795D02*
X025177Y019795D01*
X025019Y019953D02*
X011421Y019953D01*
X011580Y020112D02*
X024860Y020112D01*
X024702Y020270D02*
X011738Y020270D01*
X011897Y020429D02*
X024543Y020429D01*
X024385Y020587D02*
X012055Y020587D01*
X012214Y020746D02*
X024226Y020746D01*
X024068Y020904D02*
X012372Y020904D01*
X012531Y021063D02*
X023909Y021063D01*
X024157Y021380D02*
X024313Y021380D01*
X024294Y021427D02*
X024361Y021265D01*
X024485Y021141D01*
X024647Y021073D01*
X024823Y021073D01*
X024876Y021096D01*
X031950Y014022D01*
X031950Y013183D01*
X031895Y013160D01*
X031772Y013036D01*
X031705Y012875D01*
X031705Y012100D01*
X031772Y011938D01*
X031895Y011814D01*
X032057Y011747D01*
X032232Y011747D01*
X032394Y011814D01*
X032518Y011938D01*
X032585Y012100D01*
X032585Y012875D01*
X032518Y013036D01*
X032394Y013160D01*
X032330Y013187D01*
X032330Y014179D01*
X025149Y021361D01*
X025176Y021427D01*
X025176Y021602D01*
X025109Y021765D01*
X024985Y021889D01*
X024823Y021956D01*
X024647Y021956D01*
X024485Y021889D01*
X024361Y021765D01*
X024294Y021602D01*
X024294Y021427D01*
X024294Y021538D02*
X024176Y021538D01*
X024137Y021697D02*
X024333Y021697D01*
X024452Y021855D02*
X024019Y021855D01*
X023452Y021855D02*
X023019Y021855D01*
X022985Y021889D02*
X022823Y021956D01*
X022647Y021956D01*
X022485Y021889D01*
X022361Y021765D01*
X022294Y021602D01*
X022294Y021427D01*
X022361Y021265D01*
X022485Y021141D01*
X022647Y021073D01*
X022823Y021073D01*
X022985Y021141D01*
X023109Y021265D01*
X023176Y021427D01*
X023176Y021602D01*
X023109Y021765D01*
X022985Y021889D01*
X023137Y021697D02*
X023333Y021697D01*
X023294Y021538D02*
X023176Y021538D01*
X023157Y021380D02*
X023313Y021380D01*
X023405Y021221D02*
X023066Y021221D01*
X022405Y021221D02*
X022066Y021221D01*
X022109Y021265D02*
X022176Y021427D01*
X022176Y021602D01*
X022109Y021765D01*
X021985Y021889D01*
X021823Y021956D01*
X021647Y021956D01*
X021485Y021889D01*
X021361Y021765D01*
X021294Y021602D01*
X021294Y021427D01*
X021361Y021265D01*
X021485Y021141D01*
X021647Y021073D01*
X021823Y021073D01*
X021985Y021141D01*
X022109Y021265D01*
X022157Y021380D02*
X022313Y021380D01*
X022294Y021538D02*
X022176Y021538D01*
X022137Y021697D02*
X022333Y021697D01*
X022452Y021855D02*
X022019Y021855D01*
X021452Y021855D02*
X021019Y021855D01*
X020985Y021889D02*
X020823Y021956D01*
X020647Y021956D01*
X020485Y021889D01*
X020361Y021765D01*
X020294Y021602D01*
X020294Y021427D01*
X020361Y021265D01*
X020485Y021141D01*
X020647Y021073D01*
X020823Y021073D01*
X020985Y021141D01*
X021109Y021265D01*
X021176Y021427D01*
X021176Y021602D01*
X021109Y021765D01*
X020985Y021889D01*
X021137Y021697D02*
X021333Y021697D01*
X021294Y021538D02*
X021176Y021538D01*
X021157Y021380D02*
X021313Y021380D01*
X021405Y021221D02*
X021066Y021221D01*
X020405Y021221D02*
X020066Y021221D01*
X020109Y021265D02*
X020176Y021427D01*
X020176Y021602D01*
X020109Y021765D01*
X019985Y021889D01*
X019823Y021956D01*
X019647Y021956D01*
X019485Y021889D01*
X019361Y021765D01*
X019294Y021602D01*
X019294Y021427D01*
X019361Y021265D01*
X019485Y021141D01*
X019647Y021073D01*
X019823Y021073D01*
X019985Y021141D01*
X020109Y021265D01*
X020157Y021380D02*
X020313Y021380D01*
X020294Y021538D02*
X020176Y021538D01*
X020137Y021697D02*
X020333Y021697D01*
X020452Y021855D02*
X020019Y021855D01*
X019452Y021855D02*
X013323Y021855D01*
X013165Y021697D02*
X019333Y021697D01*
X019294Y021538D02*
X013006Y021538D01*
X012848Y021380D02*
X019313Y021380D01*
X019405Y021221D02*
X012689Y021221D01*
X012469Y021538D02*
X006370Y021538D01*
X006370Y021380D02*
X012310Y021380D01*
X012152Y021221D02*
X006370Y021221D01*
X006370Y021063D02*
X011993Y021063D01*
X011835Y020904D02*
X006370Y020904D01*
X006370Y020746D02*
X011676Y020746D01*
X011518Y020587D02*
X006370Y020587D01*
X006370Y020429D02*
X011359Y020429D01*
X011201Y020270D02*
X006370Y020270D01*
X006370Y020112D02*
X011042Y020112D01*
X010884Y019953D02*
X006370Y019953D01*
X006370Y019795D02*
X010725Y019795D01*
X010567Y019636D02*
X006370Y019636D01*
X006370Y019478D02*
X010408Y019478D01*
X010250Y019319D02*
X006370Y019319D01*
X006370Y019161D02*
X010091Y019161D01*
X009933Y019002D02*
X006370Y019002D01*
X006370Y018844D02*
X009774Y018844D01*
X009616Y018685D02*
X006370Y018685D01*
X006370Y018527D02*
X009457Y018527D01*
X009299Y018368D02*
X006370Y018368D01*
X006370Y018210D02*
X009140Y018210D01*
X008982Y018051D02*
X006370Y018051D01*
X006370Y017893D02*
X008823Y017893D01*
X008665Y017734D02*
X006370Y017734D01*
X006370Y017576D02*
X008506Y017576D01*
X008348Y017417D02*
X006370Y017417D01*
X006370Y017259D02*
X008189Y017259D01*
X008031Y017100D02*
X006370Y017100D01*
X006370Y016942D02*
X007872Y016942D01*
X007714Y016783D02*
X006370Y016783D01*
X006370Y016625D02*
X007555Y016625D01*
X007397Y016466D02*
X006370Y016466D01*
X006370Y016308D02*
X007238Y016308D01*
X007080Y016149D02*
X006370Y016149D01*
X006370Y015991D02*
X007030Y015991D01*
X007030Y016099D02*
X007030Y013275D01*
X006970Y013251D01*
X006846Y013127D01*
X006779Y012965D01*
X006779Y012190D01*
X006846Y012028D01*
X006854Y012021D01*
X006585Y012021D01*
X006592Y012028D01*
X006847Y012028D01*
X006781Y012187D02*
X006658Y012187D01*
X006659Y012190D02*
X006659Y012965D01*
X006592Y013127D01*
X006469Y013251D01*
X006370Y013291D01*
X006370Y022115D01*
X006441Y022145D01*
X006565Y022269D01*
X006632Y022430D01*
X006632Y023004D01*
X006752Y023124D01*
X006752Y022430D01*
X006819Y022269D01*
X006943Y022145D01*
X007104Y022078D01*
X007279Y022078D01*
X007441Y022145D01*
X007565Y022269D01*
X007632Y022430D01*
X007632Y023205D01*
X007565Y023367D01*
X007441Y023491D01*
X007279Y023558D01*
X007186Y023558D01*
X012379Y028751D01*
X019355Y028751D01*
X019294Y028602D01*
X019294Y028427D01*
X019313Y028382D01*
X007030Y016099D01*
X007030Y015832D02*
X006370Y015832D01*
X006370Y015674D02*
X007030Y015674D01*
X007030Y015515D02*
X006370Y015515D01*
X006370Y015357D02*
X007030Y015357D01*
X007030Y015198D02*
X006370Y015198D01*
X006370Y015040D02*
X007030Y015040D01*
X007030Y014881D02*
X006370Y014881D01*
X006370Y014723D02*
X007030Y014723D01*
X007030Y014564D02*
X006370Y014564D01*
X006370Y014406D02*
X007030Y014406D01*
X007030Y014247D02*
X006370Y014247D01*
X006370Y014089D02*
X007030Y014089D01*
X007030Y013930D02*
X006370Y013930D01*
X006370Y013772D02*
X007030Y013772D01*
X007030Y013613D02*
X006370Y013613D01*
X006370Y013455D02*
X007030Y013455D01*
X007030Y013296D02*
X006370Y013296D01*
X006582Y013138D02*
X006857Y013138D01*
X006785Y012979D02*
X006654Y012979D01*
X006659Y012821D02*
X006779Y012821D01*
X006779Y012662D02*
X006659Y012662D01*
X006659Y012504D02*
X006779Y012504D01*
X006779Y012345D02*
X006659Y012345D01*
X006659Y012190D02*
X006592Y012028D01*
X005854Y012021D02*
X005585Y012021D01*
X005592Y012028D01*
X005847Y012028D01*
X005846Y012028D02*
X005854Y012021D01*
X005846Y012028D02*
X005779Y012190D01*
X005779Y012965D01*
X005846Y013127D01*
X005970Y013251D01*
X005990Y013259D01*
X005990Y022125D01*
X005943Y022145D01*
X005819Y022269D01*
X005752Y022430D01*
X005752Y023205D01*
X005819Y023367D01*
X005943Y023491D01*
X006104Y023558D01*
X006279Y023558D01*
X006441Y023491D01*
X006511Y023421D01*
X012031Y028941D01*
X009679Y028941D01*
X004292Y023553D01*
X004441Y023491D01*
X004565Y023367D01*
X004632Y023205D01*
X004632Y022430D01*
X004565Y022269D01*
X004460Y022164D01*
X004460Y013254D01*
X004469Y013251D01*
X004592Y013127D01*
X004659Y012965D01*
X004659Y012521D01*
X004779Y012401D01*
X004779Y012965D01*
X004846Y013127D01*
X004970Y013251D01*
X004990Y013259D01*
X004990Y022125D01*
X004943Y022145D01*
X004819Y022269D01*
X004752Y022430D01*
X004752Y023205D01*
X004819Y023367D01*
X004943Y023491D01*
X005104Y023558D01*
X005279Y023558D01*
X005441Y023491D01*
X005565Y023367D01*
X005632Y023205D01*
X005632Y022430D01*
X005565Y022269D01*
X005441Y022145D01*
X005370Y022115D01*
X005370Y013291D01*
X005469Y013251D01*
X005592Y013127D01*
X005659Y012965D01*
X005659Y012190D01*
X005592Y012028D01*
X005658Y012187D02*
X005781Y012187D01*
X005779Y012345D02*
X005659Y012345D01*
X005659Y012504D02*
X005779Y012504D01*
X005779Y012662D02*
X005659Y012662D01*
X005659Y012821D02*
X005779Y012821D01*
X005785Y012979D02*
X005654Y012979D01*
X005582Y013138D02*
X005857Y013138D01*
X005990Y013296D02*
X005370Y013296D01*
X005370Y013455D02*
X005990Y013455D01*
X005990Y013613D02*
X005370Y013613D01*
X005370Y013772D02*
X005990Y013772D01*
X005990Y013930D02*
X005370Y013930D01*
X005370Y014089D02*
X005990Y014089D01*
X005990Y014247D02*
X005370Y014247D01*
X005370Y014406D02*
X005990Y014406D01*
X005990Y014564D02*
X005370Y014564D01*
X005370Y014723D02*
X005990Y014723D01*
X005990Y014881D02*
X005370Y014881D01*
X005370Y015040D02*
X005990Y015040D01*
X005990Y015198D02*
X005370Y015198D01*
X005370Y015357D02*
X005990Y015357D01*
X005990Y015515D02*
X005370Y015515D01*
X005370Y015674D02*
X005990Y015674D01*
X005990Y015832D02*
X005370Y015832D01*
X005370Y015991D02*
X005990Y015991D01*
X005990Y016149D02*
X005370Y016149D01*
X005370Y016308D02*
X005990Y016308D01*
X005990Y016466D02*
X005370Y016466D01*
X005370Y016625D02*
X005990Y016625D01*
X005990Y016783D02*
X005370Y016783D01*
X005370Y016942D02*
X005990Y016942D01*
X005990Y017100D02*
X005370Y017100D01*
X005370Y017259D02*
X005990Y017259D01*
X005990Y017417D02*
X005370Y017417D01*
X005370Y017576D02*
X005990Y017576D01*
X005990Y017734D02*
X005370Y017734D01*
X005370Y017893D02*
X005990Y017893D01*
X005990Y018051D02*
X005370Y018051D01*
X005370Y018210D02*
X005990Y018210D01*
X005990Y018368D02*
X005370Y018368D01*
X005370Y018527D02*
X005990Y018527D01*
X005990Y018685D02*
X005370Y018685D01*
X005370Y018844D02*
X005990Y018844D01*
X005990Y019002D02*
X005370Y019002D01*
X005370Y019161D02*
X005990Y019161D01*
X005990Y019319D02*
X005370Y019319D01*
X005370Y019478D02*
X005990Y019478D01*
X005990Y019636D02*
X005370Y019636D01*
X005370Y019795D02*
X005990Y019795D01*
X005990Y019953D02*
X005370Y019953D01*
X005370Y020112D02*
X005990Y020112D01*
X005990Y020270D02*
X005370Y020270D01*
X005370Y020429D02*
X005990Y020429D01*
X005990Y020587D02*
X005370Y020587D01*
X005370Y020746D02*
X005990Y020746D01*
X005990Y020904D02*
X005370Y020904D01*
X005370Y021063D02*
X005990Y021063D01*
X005990Y021221D02*
X005370Y021221D01*
X005370Y021380D02*
X005990Y021380D01*
X005990Y021538D02*
X005370Y021538D01*
X005370Y021697D02*
X005990Y021697D01*
X005990Y021855D02*
X005370Y021855D01*
X005370Y022014D02*
X005990Y022014D01*
X005915Y022172D02*
X005468Y022172D01*
X005591Y022331D02*
X005793Y022331D01*
X005752Y022489D02*
X005632Y022489D01*
X005632Y022648D02*
X005752Y022648D01*
X005752Y022806D02*
X005632Y022806D01*
X005632Y022965D02*
X005752Y022965D01*
X005752Y023123D02*
X005632Y023123D01*
X005600Y023282D02*
X005783Y023282D01*
X005892Y023440D02*
X005492Y023440D01*
X004892Y023440D02*
X004492Y023440D01*
X004600Y023282D02*
X004783Y023282D01*
X004752Y023123D02*
X004632Y023123D01*
X004632Y022965D02*
X004752Y022965D01*
X004752Y022806D02*
X004632Y022806D01*
X004632Y022648D02*
X004752Y022648D01*
X004752Y022489D02*
X004632Y022489D01*
X004591Y022331D02*
X004793Y022331D01*
X004915Y022172D02*
X004468Y022172D01*
X004460Y022014D02*
X004990Y022014D01*
X004990Y021855D02*
X004460Y021855D01*
X004460Y021697D02*
X004990Y021697D01*
X004990Y021538D02*
X004460Y021538D01*
X004460Y021380D02*
X004990Y021380D01*
X004990Y021221D02*
X004460Y021221D01*
X004460Y021063D02*
X004990Y021063D01*
X004990Y020904D02*
X004460Y020904D01*
X004460Y020746D02*
X004990Y020746D01*
X004990Y020587D02*
X004460Y020587D01*
X004460Y020429D02*
X004990Y020429D01*
X004990Y020270D02*
X004460Y020270D01*
X004460Y020112D02*
X004990Y020112D01*
X004990Y019953D02*
X004460Y019953D01*
X004460Y019795D02*
X004990Y019795D01*
X004990Y019636D02*
X004460Y019636D01*
X004460Y019478D02*
X004990Y019478D01*
X004990Y019319D02*
X004460Y019319D01*
X004460Y019161D02*
X004990Y019161D01*
X004990Y019002D02*
X004460Y019002D01*
X004460Y018844D02*
X004990Y018844D01*
X004990Y018685D02*
X004460Y018685D01*
X004460Y018527D02*
X004990Y018527D01*
X004990Y018368D02*
X004460Y018368D01*
X004460Y018210D02*
X004990Y018210D01*
X004990Y018051D02*
X004460Y018051D01*
X004460Y017893D02*
X004990Y017893D01*
X004990Y017734D02*
X004460Y017734D01*
X004460Y017576D02*
X004990Y017576D01*
X004990Y017417D02*
X004460Y017417D01*
X004460Y017259D02*
X004990Y017259D01*
X004990Y017100D02*
X004460Y017100D01*
X004460Y016942D02*
X004990Y016942D01*
X004990Y016783D02*
X004460Y016783D01*
X004460Y016625D02*
X004990Y016625D01*
X004990Y016466D02*
X004460Y016466D01*
X004460Y016308D02*
X004990Y016308D01*
X004990Y016149D02*
X004460Y016149D01*
X004460Y015991D02*
X004990Y015991D01*
X004990Y015832D02*
X004460Y015832D01*
X004460Y015674D02*
X004990Y015674D01*
X004990Y015515D02*
X004460Y015515D01*
X004460Y015357D02*
X004990Y015357D01*
X004990Y015198D02*
X004460Y015198D01*
X004460Y015040D02*
X004990Y015040D01*
X004990Y014881D02*
X004460Y014881D01*
X004460Y014723D02*
X004990Y014723D01*
X004990Y014564D02*
X004460Y014564D01*
X004460Y014406D02*
X004990Y014406D01*
X004990Y014247D02*
X004460Y014247D01*
X004460Y014089D02*
X004990Y014089D01*
X004990Y013930D02*
X004460Y013930D01*
X004460Y013772D02*
X004990Y013772D01*
X004990Y013613D02*
X004460Y013613D01*
X004460Y013455D02*
X004990Y013455D01*
X004990Y013296D02*
X004460Y013296D01*
X004582Y013138D02*
X004857Y013138D01*
X004785Y012979D02*
X004654Y012979D01*
X004659Y012821D02*
X004779Y012821D01*
X004779Y012662D02*
X004659Y012662D01*
X004676Y012504D02*
X004779Y012504D01*
X004533Y011969D02*
X004924Y011577D01*
X005012Y011541D01*
X009721Y011541D01*
X009867Y011394D02*
X004786Y011394D01*
X004944Y011236D02*
X010026Y011236D01*
X010184Y011077D02*
X005103Y011077D01*
X005261Y010919D02*
X010343Y010919D01*
X010501Y010760D02*
X005420Y010760D01*
X005578Y010602D02*
X010660Y010602D01*
X010818Y010443D02*
X005737Y010443D01*
X005895Y010285D02*
X010977Y010285D01*
X011135Y010126D02*
X006054Y010126D01*
X006212Y009968D02*
X011294Y009968D01*
X011452Y009809D02*
X006371Y009809D01*
X006529Y009651D02*
X011611Y009651D01*
X011769Y009492D02*
X006688Y009492D01*
X006846Y009334D02*
X011928Y009334D01*
X012086Y009175D02*
X007005Y009175D01*
X007163Y009017D02*
X012245Y009017D01*
X012403Y008858D02*
X009874Y008858D01*
X009868Y008861D02*
X007319Y008861D01*
X004332Y011848D01*
X004469Y011905D01*
X004533Y011969D01*
X004632Y011870D02*
X004384Y011870D01*
X004469Y011711D02*
X004790Y011711D01*
X004627Y011553D02*
X004983Y011553D01*
X004424Y011077D02*
X000690Y011077D01*
X000690Y010919D02*
X004583Y010919D01*
X004741Y010760D02*
X000690Y010760D01*
X000690Y010602D02*
X004900Y010602D01*
X005058Y010443D02*
X000690Y010443D01*
X000690Y010285D02*
X005217Y010285D01*
X005375Y010126D02*
X000690Y010126D01*
X000690Y009968D02*
X005534Y009968D01*
X005692Y009809D02*
X000690Y009809D01*
X000690Y009651D02*
X005851Y009651D01*
X006009Y009492D02*
X000690Y009492D01*
X000690Y009334D02*
X006168Y009334D01*
X006326Y009175D02*
X000690Y009175D01*
X000690Y009017D02*
X006485Y009017D01*
X006643Y008858D02*
X000690Y008858D01*
X000690Y008700D02*
X006802Y008700D01*
X008354Y008381D02*
X009721Y008381D01*
X010156Y007945D01*
X010156Y007279D01*
X010237Y007084D01*
X010386Y006935D01*
X010581Y006854D01*
X010792Y006854D01*
X010987Y006935D01*
X011136Y007084D01*
X011216Y007279D01*
X011216Y008270D01*
X011136Y008465D01*
X010987Y008614D01*
X010792Y008694D01*
X010581Y008694D01*
X010386Y008614D01*
X010276Y008504D01*
X009956Y008824D01*
X009868Y008861D01*
X010080Y008700D02*
X012562Y008700D01*
X012284Y008541D02*
X011059Y008541D01*
X011170Y008383D02*
X012173Y008383D01*
X012126Y008224D02*
X011216Y008224D01*
X011216Y008066D02*
X012126Y008066D01*
X012126Y007907D02*
X011216Y007907D01*
X011216Y007749D02*
X012126Y007749D01*
X012126Y007590D02*
X011216Y007590D01*
X011216Y007432D02*
X012126Y007432D01*
X012129Y007273D02*
X011214Y007273D01*
X011148Y007115D02*
X012194Y007115D01*
X012335Y006956D02*
X011008Y006956D01*
X010365Y006956D02*
X008446Y006956D01*
X008446Y006798D02*
X020921Y006798D01*
X020777Y006956D02*
X014948Y006956D01*
X015088Y007115D02*
X020712Y007115D01*
X020707Y007273D02*
X015154Y007273D01*
X014305Y006956D02*
X012978Y006956D01*
X013118Y007115D02*
X014164Y007115D01*
X014099Y007273D02*
X013184Y007273D01*
X013186Y007432D02*
X014096Y007432D01*
X013671Y007590D02*
X013186Y007590D01*
X013186Y007749D02*
X013513Y007749D01*
X013354Y007907D02*
X013186Y007907D01*
X013186Y008066D02*
X013196Y008066D01*
X013557Y008383D02*
X014143Y008383D01*
X014096Y008224D02*
X013716Y008224D01*
X013874Y008066D02*
X014096Y008066D01*
X014254Y008541D02*
X013399Y008541D01*
X014974Y010126D02*
X025220Y010126D01*
X025220Y009968D02*
X015132Y009968D01*
X015291Y009809D02*
X025220Y009809D01*
X025220Y009651D02*
X015449Y009651D01*
X015608Y009492D02*
X025220Y009492D01*
X025220Y009334D02*
X015766Y009334D01*
X015925Y009175D02*
X025220Y009175D01*
X025220Y009017D02*
X016083Y009017D01*
X016242Y008858D02*
X025220Y008858D01*
X025220Y008700D02*
X016400Y008700D01*
X014815Y010285D02*
X025220Y010285D01*
X025220Y010443D02*
X014657Y010443D01*
X014498Y010602D02*
X025220Y010602D01*
X025220Y010760D02*
X014340Y010760D01*
X014181Y010919D02*
X025220Y010919D01*
X025220Y011077D02*
X014023Y011077D01*
X013864Y011236D02*
X025220Y011236D01*
X025220Y011394D02*
X013706Y011394D01*
X013547Y011553D02*
X025220Y011553D01*
X025152Y011711D02*
X024728Y011711D01*
X024689Y011672D02*
X024813Y011796D01*
X024880Y011958D01*
X024880Y012733D01*
X024813Y012895D01*
X024689Y013018D01*
X024527Y013085D01*
X024352Y013085D01*
X024191Y013018D01*
X024067Y012895D01*
X024000Y012733D01*
X024000Y011958D01*
X024067Y011796D01*
X024191Y011672D01*
X024352Y011605D01*
X024527Y011605D01*
X024689Y011672D01*
X024843Y011870D02*
X025036Y011870D01*
X025000Y012028D02*
X024880Y012028D01*
X024880Y012187D02*
X025000Y012187D01*
X025000Y012345D02*
X024880Y012345D01*
X024880Y012504D02*
X025000Y012504D01*
X025000Y012662D02*
X024880Y012662D01*
X024843Y012821D02*
X025036Y012821D01*
X025151Y012979D02*
X024728Y012979D01*
X024151Y012979D02*
X023728Y012979D01*
X023689Y013018D02*
X023527Y013085D01*
X023352Y013085D01*
X023191Y013018D01*
X023067Y012895D01*
X023000Y012733D01*
X023000Y011958D01*
X023067Y011796D01*
X023191Y011672D01*
X023352Y011605D01*
X023527Y011605D01*
X023689Y011672D01*
X023813Y011796D01*
X023880Y011958D01*
X023880Y012733D01*
X023813Y012895D01*
X023689Y013018D01*
X023843Y012821D02*
X024036Y012821D01*
X024000Y012662D02*
X023880Y012662D01*
X023880Y012504D02*
X024000Y012504D01*
X024000Y012345D02*
X023880Y012345D01*
X023880Y012187D02*
X024000Y012187D01*
X024000Y012028D02*
X023880Y012028D01*
X023843Y011870D02*
X024036Y011870D01*
X024152Y011711D02*
X023728Y011711D01*
X023152Y011711D02*
X022728Y011711D01*
X022689Y011672D02*
X022813Y011796D01*
X022880Y011958D01*
X022880Y012733D01*
X022813Y012895D01*
X022689Y013018D01*
X022527Y013085D01*
X022352Y013085D01*
X022191Y013018D01*
X022067Y012895D01*
X022000Y012733D01*
X022000Y011958D01*
X022067Y011796D01*
X022191Y011672D01*
X022352Y011605D01*
X022527Y011605D01*
X022689Y011672D01*
X022843Y011870D02*
X023036Y011870D01*
X023000Y012028D02*
X022880Y012028D01*
X022880Y012187D02*
X023000Y012187D01*
X023000Y012345D02*
X022880Y012345D01*
X022880Y012504D02*
X023000Y012504D01*
X023000Y012662D02*
X022880Y012662D01*
X022843Y012821D02*
X023036Y012821D01*
X023151Y012979D02*
X022728Y012979D01*
X022151Y012979D02*
X021728Y012979D01*
X021689Y013018D02*
X021527Y013085D01*
X021352Y013085D01*
X021191Y013018D01*
X021067Y012895D01*
X021000Y012733D01*
X021000Y011958D01*
X021067Y011796D01*
X021191Y011672D01*
X021352Y011605D01*
X021527Y011605D01*
X021689Y011672D01*
X021813Y011796D01*
X021880Y011958D01*
X021880Y012733D01*
X021813Y012895D01*
X021689Y013018D01*
X021843Y012821D02*
X022036Y012821D01*
X022000Y012662D02*
X021880Y012662D01*
X021880Y012504D02*
X022000Y012504D01*
X022000Y012345D02*
X021880Y012345D01*
X021880Y012187D02*
X022000Y012187D01*
X022000Y012028D02*
X021880Y012028D01*
X021843Y011870D02*
X022036Y011870D01*
X022152Y011711D02*
X021728Y011711D01*
X021152Y011711D02*
X020728Y011711D01*
X020689Y011672D02*
X020813Y011796D01*
X020880Y011958D01*
X020880Y012733D01*
X020813Y012895D01*
X020689Y013018D01*
X020527Y013085D01*
X020352Y013085D01*
X020191Y013018D01*
X020067Y012895D01*
X020000Y012733D01*
X020000Y011958D01*
X020067Y011796D01*
X020191Y011672D01*
X020352Y011605D01*
X020527Y011605D01*
X020689Y011672D01*
X020843Y011870D02*
X021036Y011870D01*
X021000Y012028D02*
X020880Y012028D01*
X020880Y012187D02*
X021000Y012187D01*
X021000Y012345D02*
X020880Y012345D01*
X020880Y012504D02*
X021000Y012504D01*
X021000Y012662D02*
X020880Y012662D01*
X020843Y012821D02*
X021036Y012821D01*
X021151Y012979D02*
X020728Y012979D01*
X020151Y012979D02*
X019728Y012979D01*
X019689Y013018D02*
X019527Y013085D01*
X019352Y013085D01*
X019191Y013018D01*
X019067Y012895D01*
X019000Y012733D01*
X019000Y011958D01*
X019067Y011796D01*
X019191Y011672D01*
X019352Y011605D01*
X019527Y011605D01*
X019689Y011672D01*
X019813Y011796D01*
X019880Y011958D01*
X019880Y012733D01*
X019813Y012895D01*
X019689Y013018D01*
X019843Y012821D02*
X020036Y012821D01*
X020000Y012662D02*
X019880Y012662D01*
X019880Y012504D02*
X020000Y012504D01*
X020000Y012345D02*
X019880Y012345D01*
X019880Y012187D02*
X020000Y012187D01*
X020000Y012028D02*
X019880Y012028D01*
X019843Y011870D02*
X020036Y011870D01*
X020152Y011711D02*
X019728Y011711D01*
X019152Y011711D02*
X018728Y011711D01*
X018843Y011870D02*
X019036Y011870D01*
X019000Y012028D02*
X018880Y012028D01*
X018880Y012187D02*
X019000Y012187D01*
X019000Y012345D02*
X018880Y012345D01*
X018880Y012504D02*
X019000Y012504D01*
X019000Y012662D02*
X018880Y012662D01*
X018843Y012821D02*
X019036Y012821D01*
X019151Y012979D02*
X018728Y012979D01*
X018151Y012979D02*
X018090Y012979D01*
X017932Y013138D02*
X029873Y013138D01*
X029748Y012979D02*
X025728Y012979D01*
X025843Y012821D02*
X029705Y012821D01*
X029705Y012662D02*
X025880Y012662D01*
X025880Y012504D02*
X029705Y012504D01*
X029705Y012345D02*
X025880Y012345D01*
X025880Y012187D02*
X029705Y012187D01*
X029734Y012028D02*
X025880Y012028D01*
X025843Y011870D02*
X029840Y011870D01*
X029900Y011711D02*
X025728Y011711D01*
X025700Y011553D02*
X029900Y011553D01*
X029900Y011394D02*
X025700Y011394D01*
X025700Y011236D02*
X029900Y011236D01*
X029900Y011077D02*
X025700Y011077D01*
X025700Y010919D02*
X029859Y010919D01*
X029700Y010760D02*
X025700Y010760D01*
X025700Y010602D02*
X029542Y010602D01*
X029383Y010443D02*
X025700Y010443D01*
X025700Y010285D02*
X029225Y010285D01*
X029066Y010126D02*
X025700Y010126D01*
X025700Y009968D02*
X028908Y009968D01*
X028749Y009809D02*
X025700Y009809D01*
X025700Y009651D02*
X028591Y009651D01*
X028432Y009492D02*
X025700Y009492D01*
X025700Y009334D02*
X028274Y009334D01*
X028115Y009175D02*
X025700Y009175D01*
X025700Y009017D02*
X027957Y009017D01*
X027798Y008858D02*
X025700Y008858D01*
X025700Y008700D02*
X027640Y008700D01*
X027481Y008541D02*
X026524Y008541D01*
X026671Y008383D02*
X027323Y008383D01*
X027164Y008224D02*
X026736Y008224D01*
X026744Y008066D02*
X027006Y008066D01*
X026847Y007907D02*
X026744Y007907D01*
X027209Y007590D02*
X027654Y007590D01*
X027654Y007432D02*
X027050Y007432D01*
X027020Y007273D02*
X027654Y007273D01*
X027696Y007115D02*
X027020Y007115D01*
X026975Y006956D02*
X027799Y006956D01*
X027654Y007749D02*
X027367Y007749D01*
X027526Y007907D02*
X027654Y007907D01*
X028318Y008700D02*
X039040Y008700D01*
X039040Y008858D02*
X028477Y008858D01*
X028635Y009017D02*
X039040Y009017D01*
X039040Y009175D02*
X028794Y009175D01*
X028952Y009334D02*
X039040Y009334D01*
X039040Y009492D02*
X029111Y009492D01*
X029269Y009651D02*
X039040Y009651D01*
X039040Y009809D02*
X029428Y009809D01*
X029586Y009968D02*
X039040Y009968D01*
X039040Y010126D02*
X029745Y010126D01*
X028494Y008541D02*
X039040Y008541D01*
X039040Y011870D02*
X037449Y011870D01*
X037394Y011814D02*
X037518Y011938D01*
X037585Y012100D01*
X037585Y012875D01*
X037518Y013036D01*
X037394Y013160D01*
X037232Y013227D01*
X037057Y013227D01*
X036895Y013160D01*
X036772Y013036D01*
X036705Y012875D01*
X036705Y012100D01*
X036772Y011938D01*
X036895Y011814D01*
X037057Y011747D01*
X037232Y011747D01*
X037394Y011814D01*
X037555Y012028D02*
X039040Y012028D01*
X039040Y012187D02*
X037585Y012187D01*
X037585Y012345D02*
X039040Y012345D01*
X039040Y012504D02*
X037585Y012504D01*
X037585Y012662D02*
X039040Y012662D01*
X039040Y012821D02*
X037585Y012821D01*
X037541Y012979D02*
X039040Y012979D01*
X039040Y013138D02*
X037416Y013138D01*
X036873Y013138D02*
X036416Y013138D01*
X036394Y013160D02*
X036232Y013227D01*
X036057Y013227D01*
X035895Y013160D01*
X035772Y013036D01*
X035705Y012875D01*
X035705Y012100D01*
X035772Y011938D01*
X035895Y011814D01*
X036057Y011747D01*
X036232Y011747D01*
X036394Y011814D01*
X036518Y011938D01*
X036585Y012100D01*
X036585Y012875D01*
X036518Y013036D01*
X036394Y013160D01*
X036541Y012979D02*
X036748Y012979D01*
X036705Y012821D02*
X036585Y012821D01*
X036585Y012662D02*
X036705Y012662D01*
X036705Y012504D02*
X036585Y012504D01*
X036585Y012345D02*
X036705Y012345D01*
X036705Y012187D02*
X036585Y012187D01*
X036555Y012028D02*
X036734Y012028D01*
X036840Y011870D02*
X036449Y011870D01*
X035840Y011870D02*
X035449Y011870D01*
X035394Y011814D02*
X035518Y011938D01*
X035585Y012100D01*
X035585Y012875D01*
X035518Y013036D01*
X035394Y013160D01*
X035232Y013227D01*
X035057Y013227D01*
X034895Y013160D01*
X034772Y013036D01*
X034705Y012875D01*
X034705Y012100D01*
X034772Y011938D01*
X034895Y011814D01*
X035057Y011747D01*
X035232Y011747D01*
X035394Y011814D01*
X035555Y012028D02*
X035734Y012028D01*
X035705Y012187D02*
X035585Y012187D01*
X035585Y012345D02*
X035705Y012345D01*
X035705Y012504D02*
X035585Y012504D01*
X035585Y012662D02*
X035705Y012662D01*
X035705Y012821D02*
X035585Y012821D01*
X035541Y012979D02*
X035748Y012979D01*
X035873Y013138D02*
X035416Y013138D01*
X034873Y013138D02*
X034416Y013138D01*
X034394Y013160D02*
X034232Y013227D01*
X034057Y013227D01*
X033895Y013160D01*
X033772Y013036D01*
X033705Y012875D01*
X033705Y012100D01*
X033772Y011938D01*
X033895Y011814D01*
X034057Y011747D01*
X034232Y011747D01*
X034394Y011814D01*
X034518Y011938D01*
X034585Y012100D01*
X034585Y012875D01*
X034518Y013036D01*
X034394Y013160D01*
X034541Y012979D02*
X034748Y012979D01*
X034705Y012821D02*
X034585Y012821D01*
X034585Y012662D02*
X034705Y012662D01*
X034705Y012504D02*
X034585Y012504D01*
X034585Y012345D02*
X034705Y012345D01*
X034705Y012187D02*
X034585Y012187D01*
X034555Y012028D02*
X034734Y012028D01*
X034840Y011870D02*
X034449Y011870D01*
X033840Y011870D02*
X033449Y011870D01*
X033394Y011814D02*
X033518Y011938D01*
X033585Y012100D01*
X033585Y012875D01*
X033518Y013036D01*
X033394Y013160D01*
X033232Y013227D01*
X033057Y013227D01*
X032895Y013160D01*
X032772Y013036D01*
X032705Y012875D01*
X032705Y012100D01*
X032772Y011938D01*
X032895Y011814D01*
X033057Y011747D01*
X033232Y011747D01*
X033394Y011814D01*
X033555Y012028D02*
X033734Y012028D01*
X033705Y012187D02*
X033585Y012187D01*
X033585Y012345D02*
X033705Y012345D01*
X033705Y012504D02*
X033585Y012504D01*
X033585Y012662D02*
X033705Y012662D01*
X033705Y012821D02*
X033585Y012821D01*
X033541Y012979D02*
X033748Y012979D01*
X033873Y013138D02*
X033416Y013138D01*
X032873Y013138D02*
X032416Y013138D01*
X032330Y013296D02*
X039040Y013296D01*
X039040Y013455D02*
X032330Y013455D01*
X032330Y013613D02*
X039040Y013613D01*
X039040Y013772D02*
X032330Y013772D01*
X032330Y013930D02*
X039040Y013930D01*
X039040Y014089D02*
X032330Y014089D01*
X032262Y014247D02*
X039040Y014247D01*
X039040Y014406D02*
X032104Y014406D01*
X031945Y014564D02*
X039040Y014564D01*
X039040Y014723D02*
X031787Y014723D01*
X031628Y014881D02*
X039040Y014881D01*
X039040Y015040D02*
X031470Y015040D01*
X031311Y015198D02*
X039040Y015198D01*
X039040Y015357D02*
X031153Y015357D01*
X030994Y015515D02*
X039040Y015515D01*
X039040Y015674D02*
X030836Y015674D01*
X030677Y015832D02*
X039040Y015832D01*
X039040Y015991D02*
X030519Y015991D01*
X030360Y016149D02*
X039040Y016149D01*
X039040Y016308D02*
X030202Y016308D01*
X030043Y016466D02*
X039040Y016466D01*
X039040Y016625D02*
X029885Y016625D01*
X029726Y016783D02*
X039040Y016783D01*
X039040Y016942D02*
X029568Y016942D01*
X029409Y017100D02*
X039040Y017100D01*
X039040Y017259D02*
X029251Y017259D01*
X029092Y017417D02*
X039040Y017417D01*
X039040Y017576D02*
X028934Y017576D01*
X028775Y017734D02*
X039040Y017734D01*
X039040Y017893D02*
X028617Y017893D01*
X028458Y018051D02*
X039040Y018051D01*
X039040Y018210D02*
X028300Y018210D01*
X028141Y018368D02*
X039040Y018368D01*
X039040Y018527D02*
X027983Y018527D01*
X027824Y018685D02*
X039040Y018685D01*
X039040Y018844D02*
X027666Y018844D01*
X027507Y019002D02*
X039040Y019002D01*
X039040Y019161D02*
X027349Y019161D01*
X027190Y019319D02*
X039040Y019319D01*
X039040Y019478D02*
X027032Y019478D01*
X026873Y019636D02*
X039040Y019636D01*
X039040Y019795D02*
X026715Y019795D01*
X026556Y019953D02*
X039040Y019953D01*
X039040Y020112D02*
X026398Y020112D01*
X026239Y020270D02*
X039040Y020270D01*
X039040Y020429D02*
X026081Y020429D01*
X025922Y020587D02*
X039040Y020587D01*
X039040Y020746D02*
X025764Y020746D01*
X025605Y020904D02*
X039040Y020904D01*
X039040Y021063D02*
X025447Y021063D01*
X025485Y021141D02*
X025647Y021073D01*
X025823Y021073D01*
X025985Y021141D01*
X026109Y021265D01*
X026176Y021427D01*
X026176Y021602D01*
X026109Y021765D01*
X025985Y021889D01*
X025823Y021956D01*
X025647Y021956D01*
X025485Y021889D01*
X025361Y021765D01*
X025294Y021602D01*
X025294Y021427D01*
X025361Y021265D01*
X025485Y021141D01*
X025405Y021221D02*
X025288Y021221D01*
X025313Y021380D02*
X025157Y021380D01*
X025176Y021538D02*
X025294Y021538D01*
X025333Y021697D02*
X025137Y021697D01*
X025019Y021855D02*
X025452Y021855D01*
X026019Y021855D02*
X026452Y021855D01*
X026485Y021889D02*
X026361Y021765D01*
X026294Y021602D01*
X026294Y021427D01*
X026361Y021265D01*
X026485Y021141D01*
X026647Y021073D01*
X026823Y021073D01*
X026985Y021141D01*
X027109Y021265D01*
X027176Y021427D01*
X027176Y021602D01*
X027109Y021765D01*
X026985Y021889D01*
X026823Y021956D01*
X026647Y021956D01*
X026485Y021889D01*
X026333Y021697D02*
X026137Y021697D01*
X026176Y021538D02*
X026294Y021538D01*
X026313Y021380D02*
X026157Y021380D01*
X026066Y021221D02*
X026405Y021221D01*
X027066Y021221D02*
X027405Y021221D01*
X027361Y021265D02*
X027485Y021141D01*
X027647Y021073D01*
X027823Y021073D01*
X027985Y021141D01*
X028109Y021265D01*
X028176Y021427D01*
X028176Y021602D01*
X028109Y021765D01*
X027985Y021889D01*
X027823Y021956D01*
X027647Y021956D01*
X027485Y021889D01*
X027361Y021765D01*
X027294Y021602D01*
X027294Y021427D01*
X027361Y021265D01*
X027313Y021380D02*
X027157Y021380D01*
X027176Y021538D02*
X027294Y021538D01*
X027333Y021697D02*
X027137Y021697D01*
X027019Y021855D02*
X027452Y021855D01*
X028019Y021855D02*
X028452Y021855D01*
X028485Y021889D02*
X028361Y021765D01*
X028294Y021602D01*
X028294Y021427D01*
X028361Y021265D01*
X028485Y021141D01*
X028647Y021073D01*
X028823Y021073D01*
X028985Y021141D01*
X029109Y021265D01*
X029176Y021427D01*
X029176Y021602D01*
X029109Y021765D01*
X028985Y021889D01*
X028823Y021956D01*
X028647Y021956D01*
X028485Y021889D01*
X028333Y021697D02*
X028137Y021697D01*
X028176Y021538D02*
X028294Y021538D01*
X028313Y021380D02*
X028157Y021380D01*
X028066Y021221D02*
X028405Y021221D01*
X029066Y021221D02*
X029405Y021221D01*
X029361Y021265D02*
X029485Y021141D01*
X029647Y021073D01*
X029823Y021073D01*
X029985Y021141D01*
X030109Y021265D01*
X030176Y021427D01*
X030176Y021602D01*
X030109Y021765D01*
X029985Y021889D01*
X029823Y021956D01*
X029647Y021956D01*
X029485Y021889D01*
X029361Y021765D01*
X029294Y021602D01*
X029294Y021427D01*
X029361Y021265D01*
X029313Y021380D02*
X029157Y021380D01*
X029176Y021538D02*
X029294Y021538D01*
X029333Y021697D02*
X029137Y021697D01*
X029019Y021855D02*
X029452Y021855D01*
X030019Y021855D02*
X030452Y021855D01*
X030485Y021889D02*
X030361Y021765D01*
X030294Y021602D01*
X030294Y021427D01*
X030361Y021265D01*
X030485Y021141D01*
X030647Y021073D01*
X030823Y021073D01*
X030985Y021141D01*
X031109Y021265D01*
X031176Y021427D01*
X031176Y021602D01*
X031109Y021765D01*
X030985Y021889D01*
X030823Y021956D01*
X030647Y021956D01*
X030485Y021889D01*
X030333Y021697D02*
X030137Y021697D01*
X030176Y021538D02*
X030294Y021538D01*
X030313Y021380D02*
X030157Y021380D01*
X030066Y021221D02*
X030405Y021221D01*
X031066Y021221D02*
X031405Y021221D01*
X031361Y021265D02*
X031485Y021141D01*
X031647Y021073D01*
X031823Y021073D01*
X031985Y021141D01*
X032109Y021265D01*
X032176Y021427D01*
X032176Y021602D01*
X032109Y021765D01*
X031985Y021889D01*
X031823Y021956D01*
X031647Y021956D01*
X031485Y021889D01*
X031361Y021765D01*
X031294Y021602D01*
X031294Y021427D01*
X031361Y021265D01*
X031313Y021380D02*
X031157Y021380D01*
X031176Y021538D02*
X031294Y021538D01*
X031333Y021697D02*
X031137Y021697D01*
X031019Y021855D02*
X031452Y021855D01*
X032019Y021855D02*
X032452Y021855D01*
X032485Y021889D02*
X032361Y021765D01*
X032294Y021602D01*
X032294Y021427D01*
X032361Y021265D01*
X032485Y021141D01*
X032647Y021073D01*
X032823Y021073D01*
X032985Y021141D01*
X033109Y021265D01*
X033176Y021427D01*
X033176Y021602D01*
X033109Y021765D01*
X032985Y021889D01*
X032823Y021956D01*
X032647Y021956D01*
X032485Y021889D01*
X032333Y021697D02*
X032137Y021697D01*
X032176Y021538D02*
X032294Y021538D01*
X032313Y021380D02*
X032157Y021380D01*
X032066Y021221D02*
X032405Y021221D01*
X033066Y021221D02*
X039040Y021221D01*
X039040Y021380D02*
X033157Y021380D01*
X033176Y021538D02*
X039040Y021538D01*
X039040Y021697D02*
X033137Y021697D01*
X033019Y021855D02*
X039040Y021855D01*
X039040Y022014D02*
X013482Y022014D01*
X013640Y022172D02*
X039040Y022172D01*
X039040Y022331D02*
X013799Y022331D01*
X013957Y022489D02*
X039040Y022489D01*
X039040Y022648D02*
X014116Y022648D01*
X014274Y022806D02*
X039040Y022806D01*
X039040Y022965D02*
X014433Y022965D01*
X014591Y023123D02*
X039040Y023123D01*
X039040Y023282D02*
X014750Y023282D01*
X014908Y023440D02*
X039040Y023440D01*
X039040Y023599D02*
X015067Y023599D01*
X015225Y023757D02*
X039040Y023757D01*
X039040Y023916D02*
X015384Y023916D01*
X015542Y024074D02*
X039040Y024074D01*
X039040Y024233D02*
X015701Y024233D01*
X015859Y024391D02*
X039040Y024391D01*
X039040Y024550D02*
X016018Y024550D01*
X016176Y024708D02*
X039040Y024708D01*
X039040Y024867D02*
X016335Y024867D01*
X016493Y025025D02*
X039040Y025025D01*
X039040Y025184D02*
X016652Y025184D01*
X016810Y025342D02*
X039040Y025342D01*
X039040Y025501D02*
X016969Y025501D01*
X017127Y025659D02*
X039040Y025659D01*
X039040Y025818D02*
X017286Y025818D01*
X017444Y025976D02*
X039040Y025976D01*
X039040Y026135D02*
X017603Y026135D01*
X017761Y026293D02*
X039040Y026293D01*
X039040Y026452D02*
X017920Y026452D01*
X018078Y026610D02*
X039040Y026610D01*
X039040Y026769D02*
X018237Y026769D01*
X018395Y026927D02*
X039040Y026927D01*
X039040Y027086D02*
X018554Y027086D01*
X018712Y027244D02*
X039040Y027244D01*
X039040Y027403D02*
X018871Y027403D01*
X019029Y027561D02*
X039040Y027561D01*
X039040Y027720D02*
X019188Y027720D01*
X019346Y027878D02*
X039040Y027878D01*
X039040Y028037D02*
X024145Y028037D01*
X024303Y028195D02*
X024431Y028195D01*
X024241Y028671D02*
X024148Y028671D01*
X024045Y028829D02*
X024426Y028829D01*
X025045Y028829D02*
X025426Y028829D01*
X025485Y028889D02*
X025361Y028765D01*
X025294Y028602D01*
X025294Y028427D01*
X025361Y028265D01*
X025485Y028141D01*
X025647Y028073D01*
X025823Y028073D01*
X025985Y028141D01*
X026109Y028265D01*
X026176Y028427D01*
X026176Y028602D01*
X026109Y028765D01*
X025985Y028889D01*
X025823Y028956D01*
X025647Y028956D01*
X025485Y028889D01*
X025322Y028671D02*
X025148Y028671D01*
X025176Y028512D02*
X025294Y028512D01*
X025324Y028354D02*
X025146Y028354D01*
X025040Y028195D02*
X025431Y028195D01*
X026040Y028195D02*
X026431Y028195D01*
X026485Y028141D02*
X026361Y028265D01*
X026294Y028427D01*
X026294Y028602D01*
X026361Y028765D01*
X026485Y028889D01*
X026647Y028956D01*
X026823Y028956D01*
X026985Y028889D01*
X027109Y028765D01*
X027176Y028602D01*
X027176Y028427D01*
X027109Y028265D01*
X026985Y028141D01*
X026823Y028073D01*
X026647Y028073D01*
X026485Y028141D01*
X026324Y028354D02*
X026146Y028354D01*
X026176Y028512D02*
X026294Y028512D01*
X026322Y028671D02*
X026148Y028671D01*
X026045Y028829D02*
X026426Y028829D01*
X027045Y028829D02*
X027426Y028829D01*
X027485Y028889D02*
X027361Y028765D01*
X027294Y028602D01*
X027294Y028427D01*
X027361Y028265D01*
X027485Y028141D01*
X027647Y028073D01*
X027823Y028073D01*
X027985Y028141D01*
X028109Y028265D01*
X028176Y028427D01*
X028176Y028602D01*
X028109Y028765D01*
X027985Y028889D01*
X027823Y028956D01*
X027647Y028956D01*
X027485Y028889D01*
X027322Y028671D02*
X027148Y028671D01*
X027176Y028512D02*
X027294Y028512D01*
X027324Y028354D02*
X027146Y028354D01*
X027040Y028195D02*
X027431Y028195D01*
X028040Y028195D02*
X028431Y028195D01*
X028485Y028141D02*
X028361Y028265D01*
X028294Y028427D01*
X028294Y028602D01*
X028361Y028765D01*
X028485Y028889D01*
X028647Y028956D01*
X028823Y028956D01*
X028985Y028889D01*
X029109Y028765D01*
X029176Y028602D01*
X029176Y028427D01*
X029109Y028265D01*
X028985Y028141D01*
X028823Y028073D01*
X028647Y028073D01*
X028485Y028141D01*
X028324Y028354D02*
X028146Y028354D01*
X028176Y028512D02*
X028294Y028512D01*
X028322Y028671D02*
X028148Y028671D01*
X028045Y028829D02*
X028426Y028829D01*
X029045Y028829D02*
X029426Y028829D01*
X029485Y028889D02*
X029361Y028765D01*
X029294Y028602D01*
X029294Y028427D01*
X029361Y028265D01*
X029485Y028141D01*
X029647Y028073D01*
X029823Y028073D01*
X029985Y028141D01*
X030109Y028265D01*
X030176Y028427D01*
X030176Y028602D01*
X030109Y028765D01*
X029985Y028889D01*
X029823Y028956D01*
X029647Y028956D01*
X029485Y028889D01*
X029322Y028671D02*
X029148Y028671D01*
X029176Y028512D02*
X029294Y028512D01*
X029324Y028354D02*
X029146Y028354D01*
X029040Y028195D02*
X029431Y028195D01*
X030040Y028195D02*
X030431Y028195D01*
X030485Y028141D02*
X030361Y028265D01*
X030294Y028427D01*
X030294Y028602D01*
X030361Y028765D01*
X030485Y028889D01*
X030647Y028956D01*
X030823Y028956D01*
X030985Y028889D01*
X031109Y028765D01*
X031176Y028602D01*
X031176Y028427D01*
X031109Y028265D01*
X030985Y028141D01*
X030823Y028073D01*
X030647Y028073D01*
X030485Y028141D01*
X030324Y028354D02*
X030146Y028354D01*
X030176Y028512D02*
X030294Y028512D01*
X030322Y028671D02*
X030148Y028671D01*
X030045Y028829D02*
X030426Y028829D01*
X031045Y028829D02*
X031426Y028829D01*
X031485Y028889D02*
X031361Y028765D01*
X031294Y028602D01*
X031294Y028427D01*
X031361Y028265D01*
X031485Y028141D01*
X031647Y028073D01*
X031823Y028073D01*
X031985Y028141D01*
X032109Y028265D01*
X032176Y028427D01*
X032176Y028602D01*
X032109Y028765D01*
X031985Y028889D01*
X031823Y028956D01*
X031647Y028956D01*
X031485Y028889D01*
X031322Y028671D02*
X031148Y028671D01*
X031176Y028512D02*
X031294Y028512D01*
X031324Y028354D02*
X031146Y028354D01*
X031040Y028195D02*
X031431Y028195D01*
X032040Y028195D02*
X032431Y028195D01*
X032485Y028141D02*
X032361Y028265D01*
X032294Y028427D01*
X032294Y028602D01*
X032361Y028765D01*
X032485Y028889D01*
X032647Y028956D01*
X032823Y028956D01*
X032985Y028889D01*
X033109Y028765D01*
X033176Y028602D01*
X033176Y028427D01*
X033109Y028265D01*
X032985Y028141D01*
X032823Y028073D01*
X032647Y028073D01*
X032485Y028141D01*
X032324Y028354D02*
X032146Y028354D01*
X032176Y028512D02*
X032294Y028512D01*
X032322Y028671D02*
X032148Y028671D01*
X032045Y028829D02*
X032426Y028829D01*
X033045Y028829D02*
X039040Y028829D01*
X039040Y028671D02*
X033148Y028671D01*
X033176Y028512D02*
X039040Y028512D01*
X039040Y028354D02*
X033146Y028354D01*
X033040Y028195D02*
X039040Y028195D01*
X039040Y028988D02*
X022122Y028988D01*
X022280Y028829D02*
X022426Y028829D01*
X022326Y028351D02*
X022221Y028351D01*
X022167Y028405D01*
X022120Y028291D01*
X022350Y028291D01*
X022326Y028351D01*
X022218Y028354D02*
X022146Y028354D01*
X021350Y028291D02*
X021120Y028291D01*
X021170Y028411D01*
X021244Y028337D01*
X021332Y028301D01*
X021346Y028301D01*
X021350Y028291D01*
X021228Y028354D02*
X021146Y028354D01*
X021272Y028988D02*
X021584Y028988D01*
X021426Y029146D02*
X021114Y029146D01*
X021267Y029305D02*
X020955Y029305D01*
X021109Y029463D02*
X000690Y029463D01*
X000690Y029305D02*
X009365Y029305D01*
X009206Y029146D02*
X000690Y029146D01*
X000690Y028988D02*
X009048Y028988D01*
X008889Y028829D02*
X000690Y028829D01*
X000690Y028671D02*
X008731Y028671D01*
X008572Y028512D02*
X000690Y028512D01*
X000690Y028354D02*
X008414Y028354D01*
X008255Y028195D02*
X000690Y028195D01*
X000690Y028037D02*
X008097Y028037D01*
X007938Y027878D02*
X000690Y027878D01*
X000690Y027720D02*
X007780Y027720D01*
X007621Y027561D02*
X000690Y027561D01*
X000690Y027403D02*
X007463Y027403D01*
X007304Y027244D02*
X000690Y027244D01*
X000690Y027086D02*
X007146Y027086D01*
X006987Y026927D02*
X000690Y026927D01*
X000690Y026769D02*
X006829Y026769D01*
X006670Y026610D02*
X000690Y026610D01*
X000690Y026452D02*
X006512Y026452D01*
X006353Y026293D02*
X000690Y026293D01*
X000690Y026135D02*
X006195Y026135D01*
X006036Y025976D02*
X000690Y025976D01*
X000690Y025818D02*
X005878Y025818D01*
X005719Y025659D02*
X000690Y025659D01*
X000690Y025501D02*
X005561Y025501D01*
X005402Y025342D02*
X000690Y025342D01*
X000690Y025184D02*
X005244Y025184D01*
X005085Y025025D02*
X000690Y025025D01*
X000690Y024867D02*
X004927Y024867D01*
X004768Y024708D02*
X000690Y024708D01*
X000690Y024550D02*
X004610Y024550D01*
X004451Y024391D02*
X000690Y024391D01*
X000690Y024233D02*
X004293Y024233D01*
X004134Y024074D02*
X000690Y024074D01*
X000690Y023916D02*
X003976Y023916D01*
X003817Y023757D02*
X000690Y023757D01*
X000690Y023599D02*
X003659Y023599D01*
X003500Y023440D02*
X003492Y023440D01*
X002892Y023440D02*
X000690Y023440D01*
X000690Y023282D02*
X002783Y023282D01*
X002752Y023123D02*
X000690Y023123D01*
X000690Y022965D02*
X002752Y022965D01*
X002752Y022806D02*
X000690Y022806D01*
X000690Y022648D02*
X002752Y022648D01*
X002752Y022489D02*
X000690Y022489D01*
X000690Y022331D02*
X002793Y022331D01*
X002915Y022172D02*
X000690Y022172D01*
X000690Y022014D02*
X002980Y022014D01*
X002980Y021855D02*
X000690Y021855D01*
X000690Y021697D02*
X002980Y021697D01*
X002980Y021538D02*
X000690Y021538D01*
X000690Y021380D02*
X002980Y021380D01*
X002980Y021221D02*
X000690Y021221D01*
X000690Y021063D02*
X002980Y021063D01*
X002980Y020904D02*
X000690Y020904D01*
X000690Y020746D02*
X002980Y020746D01*
X002980Y020587D02*
X000690Y020587D01*
X000690Y020429D02*
X002980Y020429D01*
X002980Y020270D02*
X000690Y020270D01*
X000690Y020112D02*
X002980Y020112D01*
X002980Y019953D02*
X000690Y019953D01*
X000690Y019795D02*
X002980Y019795D01*
X002980Y019636D02*
X000690Y019636D01*
X000690Y019478D02*
X002980Y019478D01*
X002980Y019319D02*
X000690Y019319D01*
X000690Y019161D02*
X002980Y019161D01*
X002980Y019002D02*
X000690Y019002D01*
X000690Y018844D02*
X002980Y018844D01*
X002980Y018685D02*
X000690Y018685D01*
X000690Y018527D02*
X002980Y018527D01*
X002980Y018368D02*
X000690Y018368D01*
X000690Y018210D02*
X002980Y018210D01*
X002980Y018051D02*
X000690Y018051D01*
X000690Y017893D02*
X002980Y017893D01*
X002980Y017734D02*
X000690Y017734D01*
X000690Y017576D02*
X002980Y017576D01*
X002980Y017417D02*
X000690Y017417D01*
X000690Y017259D02*
X002980Y017259D01*
X002980Y017100D02*
X000690Y017100D01*
X000690Y016942D02*
X002980Y016942D01*
X002980Y016783D02*
X000690Y016783D01*
X000690Y016625D02*
X002980Y016625D01*
X002980Y016466D02*
X000690Y016466D01*
X000690Y016308D02*
X002980Y016308D01*
X002980Y016149D02*
X000690Y016149D01*
X000690Y015991D02*
X002980Y015991D01*
X002980Y015832D02*
X000690Y015832D01*
X000690Y015674D02*
X002980Y015674D01*
X002980Y015515D02*
X000690Y015515D01*
X000690Y015357D02*
X002980Y015357D01*
X002980Y015198D02*
X000690Y015198D01*
X000690Y015040D02*
X002980Y015040D01*
X002980Y014881D02*
X000690Y014881D01*
X000690Y014723D02*
X002980Y014723D01*
X002980Y014564D02*
X000690Y014564D01*
X000690Y014406D02*
X002980Y014406D01*
X002980Y014247D02*
X000690Y014247D01*
X000690Y014089D02*
X002980Y014089D01*
X002980Y013930D02*
X000690Y013930D01*
X000690Y013772D02*
X002980Y013772D01*
X002980Y013613D02*
X000690Y013613D01*
X000690Y013455D02*
X002996Y013455D01*
X003080Y013296D02*
X000690Y013296D01*
X000690Y013138D02*
X002857Y013138D01*
X002785Y012979D02*
X000690Y012979D01*
X000690Y012821D02*
X002779Y012821D01*
X002779Y012662D02*
X000690Y012662D01*
X000690Y012504D02*
X002779Y012504D01*
X002779Y012345D02*
X000690Y012345D01*
X000690Y012187D02*
X002781Y012187D01*
X002847Y012028D02*
X000690Y012028D01*
X000690Y011870D02*
X003055Y011870D01*
X003384Y011870D02*
X003632Y011870D01*
X003790Y011711D02*
X000690Y011711D01*
X000690Y011553D02*
X003949Y011553D01*
X004107Y011394D02*
X000690Y011394D01*
X000690Y011236D02*
X004266Y011236D01*
X003910Y013190D02*
X003876Y013224D01*
X003460Y013640D01*
X003460Y022164D01*
X003565Y022269D01*
X003632Y022430D01*
X003632Y022893D01*
X003752Y023013D01*
X003752Y022430D01*
X003819Y022269D01*
X003943Y022145D01*
X003980Y022129D01*
X003980Y013255D01*
X003970Y013251D01*
X003910Y013190D01*
X003980Y013296D02*
X003804Y013296D01*
X003645Y013455D02*
X003980Y013455D01*
X003980Y013613D02*
X003487Y013613D01*
X003460Y013772D02*
X003980Y013772D01*
X003980Y013930D02*
X003460Y013930D01*
X003460Y014089D02*
X003980Y014089D01*
X003980Y014247D02*
X003460Y014247D01*
X003460Y014406D02*
X003980Y014406D01*
X003980Y014564D02*
X003460Y014564D01*
X003460Y014723D02*
X003980Y014723D01*
X003980Y014881D02*
X003460Y014881D01*
X003460Y015040D02*
X003980Y015040D01*
X003980Y015198D02*
X003460Y015198D01*
X003460Y015357D02*
X003980Y015357D01*
X003980Y015515D02*
X003460Y015515D01*
X003460Y015674D02*
X003980Y015674D01*
X003980Y015832D02*
X003460Y015832D01*
X003460Y015991D02*
X003980Y015991D01*
X003980Y016149D02*
X003460Y016149D01*
X003460Y016308D02*
X003980Y016308D01*
X003980Y016466D02*
X003460Y016466D01*
X003460Y016625D02*
X003980Y016625D01*
X003980Y016783D02*
X003460Y016783D01*
X003460Y016942D02*
X003980Y016942D01*
X003980Y017100D02*
X003460Y017100D01*
X003460Y017259D02*
X003980Y017259D01*
X003980Y017417D02*
X003460Y017417D01*
X003460Y017576D02*
X003980Y017576D01*
X003980Y017734D02*
X003460Y017734D01*
X003460Y017893D02*
X003980Y017893D01*
X003980Y018051D02*
X003460Y018051D01*
X003460Y018210D02*
X003980Y018210D01*
X003980Y018368D02*
X003460Y018368D01*
X003460Y018527D02*
X003980Y018527D01*
X003980Y018685D02*
X003460Y018685D01*
X003460Y018844D02*
X003980Y018844D01*
X003980Y019002D02*
X003460Y019002D01*
X003460Y019161D02*
X003980Y019161D01*
X003980Y019319D02*
X003460Y019319D01*
X003460Y019478D02*
X003980Y019478D01*
X003980Y019636D02*
X003460Y019636D01*
X003460Y019795D02*
X003980Y019795D01*
X003980Y019953D02*
X003460Y019953D01*
X003460Y020112D02*
X003980Y020112D01*
X003980Y020270D02*
X003460Y020270D01*
X003460Y020429D02*
X003980Y020429D01*
X003980Y020587D02*
X003460Y020587D01*
X003460Y020746D02*
X003980Y020746D01*
X003980Y020904D02*
X003460Y020904D01*
X003460Y021063D02*
X003980Y021063D01*
X003980Y021221D02*
X003460Y021221D01*
X003460Y021380D02*
X003980Y021380D01*
X003980Y021538D02*
X003460Y021538D01*
X003460Y021697D02*
X003980Y021697D01*
X003980Y021855D02*
X003460Y021855D01*
X003460Y022014D02*
X003980Y022014D01*
X003915Y022172D02*
X003468Y022172D01*
X003591Y022331D02*
X003793Y022331D01*
X003752Y022489D02*
X003632Y022489D01*
X003632Y022648D02*
X003752Y022648D01*
X003752Y022806D02*
X003632Y022806D01*
X003703Y022965D02*
X003752Y022965D01*
X004337Y023599D02*
X006689Y023599D01*
X006531Y023440D02*
X006492Y023440D01*
X006751Y023123D02*
X006752Y023123D01*
X006752Y022965D02*
X006632Y022965D01*
X006632Y022806D02*
X006752Y022806D01*
X006752Y022648D02*
X006632Y022648D01*
X006632Y022489D02*
X006752Y022489D01*
X006793Y022331D02*
X006591Y022331D01*
X006468Y022172D02*
X006915Y022172D01*
X007468Y022172D02*
X007915Y022172D01*
X007943Y022145D02*
X008104Y022078D01*
X008279Y022078D01*
X008441Y022145D01*
X008565Y022269D01*
X008632Y022430D01*
X008632Y023205D01*
X008565Y023367D01*
X008441Y023491D01*
X008279Y023558D01*
X008104Y023558D01*
X007943Y023491D01*
X007819Y023367D01*
X007752Y023205D01*
X007752Y022430D01*
X007819Y022269D01*
X007943Y022145D01*
X007793Y022331D02*
X007591Y022331D01*
X007632Y022489D02*
X007752Y022489D01*
X007752Y022648D02*
X007632Y022648D01*
X007632Y022806D02*
X007752Y022806D01*
X007752Y022965D02*
X007632Y022965D01*
X007632Y023123D02*
X007752Y023123D01*
X007783Y023282D02*
X007600Y023282D01*
X007492Y023440D02*
X007892Y023440D01*
X007544Y023916D02*
X014846Y023916D01*
X014688Y023757D02*
X007385Y023757D01*
X007227Y023599D02*
X014529Y023599D01*
X014371Y023440D02*
X008492Y023440D01*
X008600Y023282D02*
X014212Y023282D01*
X014054Y023123D02*
X008632Y023123D01*
X008632Y022965D02*
X013895Y022965D01*
X013737Y022806D02*
X008632Y022806D01*
X008632Y022648D02*
X013578Y022648D01*
X013420Y022489D02*
X008632Y022489D01*
X008591Y022331D02*
X013261Y022331D01*
X013103Y022172D02*
X008468Y022172D01*
X006848Y023757D02*
X004496Y023757D01*
X004654Y023916D02*
X007006Y023916D01*
X007165Y024074D02*
X004813Y024074D01*
X004971Y024233D02*
X007323Y024233D01*
X007482Y024391D02*
X005130Y024391D01*
X005288Y024550D02*
X007640Y024550D01*
X007799Y024708D02*
X005447Y024708D01*
X005605Y024867D02*
X007957Y024867D01*
X008116Y025025D02*
X005764Y025025D01*
X005922Y025184D02*
X008274Y025184D01*
X008433Y025342D02*
X006081Y025342D01*
X006239Y025501D02*
X008591Y025501D01*
X008750Y025659D02*
X006398Y025659D01*
X006556Y025818D02*
X008908Y025818D01*
X009067Y025976D02*
X006715Y025976D01*
X006873Y026135D02*
X009225Y026135D01*
X009384Y026293D02*
X007032Y026293D01*
X007190Y026452D02*
X009542Y026452D01*
X009701Y026610D02*
X007349Y026610D01*
X007507Y026769D02*
X009859Y026769D01*
X010018Y026927D02*
X007666Y026927D01*
X007824Y027086D02*
X010176Y027086D01*
X010335Y027244D02*
X007983Y027244D01*
X008141Y027403D02*
X010493Y027403D01*
X010652Y027561D02*
X008300Y027561D01*
X008458Y027720D02*
X010810Y027720D01*
X010969Y027878D02*
X008617Y027878D01*
X008775Y028037D02*
X011127Y028037D01*
X011286Y028195D02*
X008934Y028195D01*
X009092Y028354D02*
X011444Y028354D01*
X011603Y028512D02*
X009251Y028512D01*
X009409Y028671D02*
X011761Y028671D01*
X011920Y028829D02*
X009568Y028829D01*
X011031Y027403D02*
X018333Y027403D01*
X018175Y027244D02*
X010872Y027244D01*
X010714Y027086D02*
X018016Y027086D01*
X017858Y026927D02*
X010555Y026927D01*
X010397Y026769D02*
X017699Y026769D01*
X017541Y026610D02*
X010238Y026610D01*
X010080Y026452D02*
X017382Y026452D01*
X017224Y026293D02*
X009921Y026293D01*
X009763Y026135D02*
X017065Y026135D01*
X016907Y025976D02*
X009604Y025976D01*
X009446Y025818D02*
X016748Y025818D01*
X016590Y025659D02*
X009287Y025659D01*
X009129Y025501D02*
X016431Y025501D01*
X016273Y025342D02*
X008970Y025342D01*
X008812Y025184D02*
X016114Y025184D01*
X015956Y025025D02*
X008653Y025025D01*
X008495Y024867D02*
X015797Y024867D01*
X015639Y024708D02*
X008336Y024708D01*
X008178Y024550D02*
X015480Y024550D01*
X015322Y024391D02*
X008019Y024391D01*
X007861Y024233D02*
X015163Y024233D01*
X015005Y024074D02*
X007702Y024074D01*
X006370Y022014D02*
X012944Y022014D01*
X012786Y021855D02*
X006370Y021855D01*
X006370Y021697D02*
X012627Y021697D01*
X011189Y027561D02*
X018492Y027561D01*
X018650Y027720D02*
X011348Y027720D01*
X011506Y027878D02*
X018809Y027878D01*
X018967Y028037D02*
X011665Y028037D01*
X011823Y028195D02*
X019126Y028195D01*
X019284Y028354D02*
X011982Y028354D01*
X012140Y028512D02*
X019294Y028512D01*
X019322Y028671D02*
X012299Y028671D01*
X012565Y030123D02*
X011574Y030123D01*
X011380Y030203D01*
X011230Y030353D01*
X011150Y030547D01*
X011150Y030758D01*
X011230Y030953D01*
X011380Y031102D01*
X011574Y031183D01*
X012565Y031183D01*
X012760Y031102D01*
X012909Y030953D01*
X012990Y030758D01*
X012990Y030547D01*
X012909Y030353D01*
X012760Y030203D01*
X012565Y030123D01*
X012812Y030256D02*
X020316Y030256D01*
X020158Y030414D02*
X012935Y030414D01*
X012990Y030573D02*
X019999Y030573D01*
X019841Y030731D02*
X012990Y030731D01*
X012935Y030890D02*
X019682Y030890D01*
X019524Y031048D02*
X012814Y031048D01*
X012722Y032158D02*
X018414Y032158D01*
X018256Y032316D02*
X012903Y032316D01*
X012882Y032950D02*
X025496Y032950D01*
X025488Y032942D02*
X025612Y033066D01*
X025774Y033133D01*
X025949Y033133D01*
X026110Y033066D01*
X026234Y032942D01*
X026301Y032780D01*
X026301Y032005D01*
X026234Y031843D01*
X026110Y031720D01*
X025949Y031653D01*
X025774Y031653D01*
X025612Y031720D01*
X025488Y031843D01*
X025421Y032005D01*
X025421Y032780D01*
X025488Y032942D01*
X025426Y032792D02*
X018318Y032792D01*
X018476Y032633D02*
X025421Y032633D01*
X025421Y032475D02*
X018635Y032475D01*
X018793Y032316D02*
X025421Y032316D01*
X025421Y032158D02*
X018952Y032158D01*
X019110Y031999D02*
X025424Y031999D01*
X025491Y031841D02*
X019269Y031841D01*
X019427Y031682D02*
X025702Y031682D01*
X026020Y031682D02*
X026702Y031682D01*
X026774Y031653D02*
X026949Y031653D01*
X027110Y031720D01*
X027234Y031843D01*
X027301Y032005D01*
X027301Y032780D01*
X027234Y032942D01*
X027110Y033066D01*
X026949Y033133D01*
X026774Y033133D01*
X026612Y033066D01*
X026488Y032942D01*
X026421Y032780D01*
X026421Y032005D01*
X026488Y031843D01*
X026612Y031720D01*
X026774Y031653D01*
X027020Y031682D02*
X027702Y031682D01*
X027774Y031653D02*
X027949Y031653D01*
X028110Y031720D01*
X028234Y031843D01*
X028301Y032005D01*
X028301Y032780D01*
X028234Y032942D01*
X028110Y033066D01*
X028100Y033070D01*
X028100Y033868D01*
X028063Y033957D01*
X026824Y035196D01*
X026854Y035196D01*
X027016Y035263D01*
X027140Y035387D01*
X027207Y035548D01*
X027207Y036323D01*
X027140Y036485D01*
X027016Y036609D01*
X026854Y036676D01*
X026679Y036676D01*
X026517Y036609D01*
X026394Y036485D01*
X026327Y036323D01*
X026327Y035693D01*
X026207Y035813D01*
X026207Y036323D01*
X026140Y036485D01*
X026016Y036609D01*
X025854Y036676D01*
X025679Y036676D01*
X025517Y036609D01*
X025394Y036485D01*
X025327Y036323D01*
X025327Y035548D01*
X025394Y035387D01*
X025517Y035263D01*
X025679Y035196D01*
X025854Y035196D01*
X026016Y035263D01*
X026047Y035294D01*
X027620Y033721D01*
X027620Y033069D01*
X027612Y033066D01*
X027488Y032942D01*
X027421Y032780D01*
X027421Y032005D01*
X027488Y031843D01*
X027612Y031720D01*
X027774Y031653D01*
X028020Y031682D02*
X031233Y031682D01*
X031233Y031524D02*
X019586Y031524D01*
X019744Y031365D02*
X031243Y031365D01*
X031309Y031207D02*
X019903Y031207D01*
X020061Y031048D02*
X031479Y031048D01*
X031233Y031841D02*
X028231Y031841D01*
X028299Y031999D02*
X031233Y031999D01*
X031233Y032158D02*
X028301Y032158D01*
X028301Y032316D02*
X031233Y032316D01*
X031233Y032475D02*
X028301Y032475D01*
X028301Y032633D02*
X031233Y032633D01*
X031233Y032792D02*
X028296Y032792D01*
X028226Y032950D02*
X031233Y032950D01*
X031233Y033109D02*
X028100Y033109D01*
X028100Y033267D02*
X031233Y033267D01*
X031233Y033426D02*
X028100Y033426D01*
X028100Y033584D02*
X031233Y033584D01*
X031233Y033743D02*
X028100Y033743D01*
X028086Y033901D02*
X031233Y033901D01*
X031233Y034060D02*
X027960Y034060D01*
X027802Y034218D02*
X031233Y034218D01*
X031233Y034377D02*
X027643Y034377D01*
X027485Y034535D02*
X031233Y034535D01*
X031233Y034694D02*
X027326Y034694D01*
X027168Y034852D02*
X031233Y034852D01*
X031233Y035011D02*
X027009Y035011D01*
X026851Y035169D02*
X031233Y035169D01*
X031233Y035328D02*
X030081Y035328D01*
X030140Y035387D02*
X030207Y035548D01*
X030207Y036323D01*
X030140Y036485D01*
X030016Y036609D01*
X029854Y036676D01*
X029679Y036676D01*
X029517Y036609D01*
X029394Y036485D01*
X029327Y036323D01*
X029327Y035548D01*
X029394Y035387D01*
X029517Y035263D01*
X029679Y035196D01*
X029854Y035196D01*
X030016Y035263D01*
X030140Y035387D01*
X030181Y035486D02*
X031233Y035486D01*
X031233Y035645D02*
X030207Y035645D01*
X030207Y035803D02*
X031233Y035803D01*
X031233Y035962D02*
X030207Y035962D01*
X030207Y036120D02*
X031233Y036120D01*
X031233Y036279D02*
X030207Y036279D01*
X030159Y036437D02*
X031233Y036437D01*
X031233Y036596D02*
X030029Y036596D01*
X029504Y036596D02*
X029029Y036596D01*
X029016Y036609D02*
X028854Y036676D01*
X028679Y036676D01*
X028517Y036609D01*
X028394Y036485D01*
X028327Y036323D01*
X028327Y035548D01*
X028394Y035387D01*
X028517Y035263D01*
X028679Y035196D01*
X028854Y035196D01*
X029016Y035263D01*
X029140Y035387D01*
X029207Y035548D01*
X029207Y036323D01*
X029140Y036485D01*
X029016Y036609D01*
X029159Y036437D02*
X029374Y036437D01*
X029327Y036279D02*
X029207Y036279D01*
X029207Y036120D02*
X029327Y036120D01*
X029327Y035962D02*
X029207Y035962D01*
X029207Y035803D02*
X029327Y035803D01*
X029327Y035645D02*
X029207Y035645D01*
X029181Y035486D02*
X029352Y035486D01*
X029453Y035328D02*
X029081Y035328D01*
X028453Y035328D02*
X028081Y035328D01*
X028140Y035387D02*
X028207Y035548D01*
X028207Y036323D01*
X028140Y036485D01*
X028016Y036609D01*
X027854Y036676D01*
X027679Y036676D01*
X027517Y036609D01*
X027394Y036485D01*
X027327Y036323D01*
X027327Y035548D01*
X027394Y035387D01*
X027517Y035263D01*
X027679Y035196D01*
X027854Y035196D01*
X028016Y035263D01*
X028140Y035387D01*
X028181Y035486D02*
X028352Y035486D01*
X028327Y035645D02*
X028207Y035645D01*
X028207Y035803D02*
X028327Y035803D01*
X028327Y035962D02*
X028207Y035962D01*
X028207Y036120D02*
X028327Y036120D01*
X028327Y036279D02*
X028207Y036279D01*
X028159Y036437D02*
X028374Y036437D01*
X028504Y036596D02*
X028029Y036596D01*
X027504Y036596D02*
X027029Y036596D01*
X027159Y036437D02*
X027374Y036437D01*
X027327Y036279D02*
X027207Y036279D01*
X027207Y036120D02*
X027327Y036120D01*
X027327Y035962D02*
X027207Y035962D01*
X027207Y035803D02*
X027327Y035803D01*
X027327Y035645D02*
X027207Y035645D01*
X027181Y035486D02*
X027352Y035486D01*
X027453Y035328D02*
X027081Y035328D01*
X026489Y034852D02*
X020443Y034852D01*
X020443Y034901D02*
X020355Y035114D01*
X020193Y035277D01*
X019980Y035365D01*
X019750Y035365D01*
X019537Y035277D01*
X019375Y035114D01*
X019287Y034901D01*
X019287Y034671D01*
X019375Y034459D01*
X019537Y034296D01*
X019750Y034208D01*
X019980Y034208D01*
X020193Y034296D01*
X020355Y034459D01*
X020443Y034671D01*
X020443Y034901D01*
X020398Y035011D02*
X026331Y035011D01*
X026172Y035169D02*
X020300Y035169D01*
X020070Y035328D02*
X024453Y035328D01*
X024394Y035387D02*
X024517Y035263D01*
X024679Y035196D01*
X024854Y035196D01*
X025016Y035263D01*
X025140Y035387D01*
X025207Y035548D01*
X025207Y036323D01*
X025140Y036485D01*
X025016Y036609D01*
X024854Y036676D01*
X024679Y036676D01*
X024517Y036609D01*
X024394Y036485D01*
X024327Y036323D01*
X024327Y035548D01*
X024394Y035387D01*
X024352Y035486D02*
X007359Y035486D01*
X007359Y035328D02*
X019661Y035328D01*
X019430Y035169D02*
X007359Y035169D01*
X007359Y035011D02*
X019332Y035011D01*
X019287Y034852D02*
X007359Y034852D01*
X007359Y034694D02*
X019287Y034694D01*
X019343Y034535D02*
X007359Y034535D01*
X007359Y034377D02*
X019457Y034377D01*
X019725Y034218D02*
X007359Y034218D01*
X007359Y034060D02*
X027282Y034060D01*
X027440Y033901D02*
X007359Y033901D01*
X007359Y033743D02*
X027599Y033743D01*
X027620Y033584D02*
X007359Y033584D01*
X007359Y033426D02*
X027620Y033426D01*
X027620Y033267D02*
X007359Y033267D01*
X007359Y033109D02*
X011468Y033109D01*
X011258Y032950D02*
X007359Y032950D01*
X007359Y032792D02*
X011176Y032792D01*
X011150Y032633D02*
X007359Y032633D01*
X007359Y032475D02*
X011167Y032475D01*
X011237Y032316D02*
X007359Y032316D01*
X007359Y032158D02*
X011418Y032158D01*
X011326Y031048D02*
X000690Y031048D01*
X000690Y030890D02*
X011204Y030890D01*
X011150Y030731D02*
X000690Y030731D01*
X000690Y030573D02*
X011150Y030573D01*
X011205Y030414D02*
X000690Y030414D01*
X000690Y030256D02*
X011327Y030256D01*
X012672Y033109D02*
X025716Y033109D01*
X026006Y033109D02*
X026716Y033109D01*
X026496Y032950D02*
X026226Y032950D01*
X026296Y032792D02*
X026426Y032792D01*
X026421Y032633D02*
X026301Y032633D01*
X026301Y032475D02*
X026421Y032475D01*
X026421Y032316D02*
X026301Y032316D01*
X026301Y032158D02*
X026421Y032158D01*
X026424Y031999D02*
X026299Y031999D01*
X026231Y031841D02*
X026491Y031841D01*
X027231Y031841D02*
X027491Y031841D01*
X027424Y031999D02*
X027299Y031999D01*
X027301Y032158D02*
X027421Y032158D01*
X027421Y032316D02*
X027301Y032316D01*
X027301Y032475D02*
X027421Y032475D01*
X027421Y032633D02*
X027301Y032633D01*
X027296Y032792D02*
X027426Y032792D01*
X027496Y032950D02*
X027226Y032950D01*
X027006Y033109D02*
X027620Y033109D01*
X027123Y034218D02*
X020005Y034218D01*
X020273Y034377D02*
X026965Y034377D01*
X026806Y034535D02*
X020387Y034535D01*
X020443Y034694D02*
X026648Y034694D01*
X026327Y035803D02*
X026217Y035803D01*
X026207Y035962D02*
X026327Y035962D01*
X026327Y036120D02*
X026207Y036120D01*
X026207Y036279D02*
X026327Y036279D01*
X026374Y036437D02*
X026159Y036437D01*
X026029Y036596D02*
X026504Y036596D01*
X025504Y036596D02*
X025029Y036596D01*
X025159Y036437D02*
X025374Y036437D01*
X025327Y036279D02*
X025207Y036279D01*
X025207Y036120D02*
X025327Y036120D01*
X025327Y035962D02*
X025207Y035962D01*
X025207Y035803D02*
X025327Y035803D01*
X025327Y035645D02*
X025207Y035645D01*
X025181Y035486D02*
X025352Y035486D01*
X025453Y035328D02*
X025081Y035328D01*
X024327Y035645D02*
X007359Y035645D01*
X007359Y035803D02*
X024327Y035803D01*
X024327Y035962D02*
X007359Y035962D01*
X007359Y036120D02*
X024327Y036120D01*
X024327Y036279D02*
X007359Y036279D01*
X007359Y031999D02*
X018573Y031999D01*
X018731Y031841D02*
X007359Y031841D01*
X007359Y031682D02*
X018890Y031682D01*
X019048Y031524D02*
X007359Y031524D01*
X007305Y031365D02*
X019207Y031365D01*
X019365Y031207D02*
X007180Y031207D01*
X000690Y030097D02*
X020475Y030097D01*
X020633Y029939D02*
X000690Y029939D01*
X000690Y029780D02*
X020792Y029780D01*
X020950Y029622D02*
X000690Y029622D01*
X007582Y013138D02*
X007857Y013138D01*
X007785Y012979D02*
X007654Y012979D01*
X007659Y012821D02*
X007779Y012821D01*
X007779Y012662D02*
X007659Y012662D01*
X007659Y012504D02*
X007779Y012504D01*
X007779Y012345D02*
X007659Y012345D01*
X008354Y008381D02*
X008368Y008367D01*
X008446Y008179D01*
X008427Y008224D02*
X009877Y008224D01*
X010036Y008066D02*
X008446Y008066D01*
X008446Y007907D02*
X010156Y007907D01*
X010156Y007749D02*
X008446Y007749D01*
X008446Y007590D02*
X010156Y007590D01*
X010156Y007432D02*
X008446Y007432D01*
X008446Y007273D02*
X010159Y007273D01*
X010224Y007115D02*
X008446Y007115D01*
X008446Y006322D02*
X031339Y006322D01*
X031339Y006164D02*
X008446Y006164D01*
X008446Y006005D02*
X031339Y006005D01*
X031339Y005847D02*
X008446Y005847D01*
X008446Y005688D02*
X031339Y005688D01*
X031339Y005530D02*
X008446Y005530D01*
X008446Y005371D02*
X031339Y005371D01*
X031339Y005213D02*
X008446Y005213D01*
X008446Y005054D02*
X031339Y005054D01*
X031339Y004896D02*
X008446Y004896D01*
X008446Y004737D02*
X031339Y004737D01*
X031339Y004579D02*
X008446Y004579D01*
X008446Y004420D02*
X031339Y004420D01*
X031339Y004262D02*
X019982Y004262D01*
X019980Y004262D02*
X019750Y004262D01*
X019537Y004174D01*
X019375Y004012D01*
X019287Y003799D01*
X019287Y003569D01*
X019375Y003356D01*
X019537Y003194D01*
X019750Y003106D01*
X019980Y003106D01*
X020193Y003194D01*
X020355Y003356D01*
X020443Y003569D01*
X020443Y003799D01*
X020355Y004012D01*
X020193Y004174D01*
X019980Y004262D01*
X019748Y004262D02*
X008446Y004262D01*
X008446Y004103D02*
X019466Y004103D01*
X019347Y003945D02*
X008446Y003945D01*
X008446Y003786D02*
X019287Y003786D01*
X019287Y003628D02*
X008446Y003628D01*
X008446Y003469D02*
X019328Y003469D01*
X019420Y003311D02*
X008446Y003311D01*
X008446Y003152D02*
X019637Y003152D01*
X020093Y003152D02*
X031339Y003152D01*
X031339Y002994D02*
X008446Y002994D01*
X008446Y002835D02*
X031339Y002835D01*
X031339Y002677D02*
X008446Y002677D01*
X008446Y002518D02*
X031339Y002518D01*
X031339Y002360D02*
X008446Y002360D01*
X008446Y002201D02*
X031339Y002201D01*
X031339Y002043D02*
X008446Y002043D01*
X008446Y001884D02*
X031339Y001884D01*
X031339Y001726D02*
X008446Y001726D01*
X008446Y001567D02*
X031339Y001567D01*
X031339Y001409D02*
X008446Y001409D01*
X008446Y001250D02*
X031339Y001250D01*
X031339Y001092D02*
X008446Y001092D01*
X008446Y000933D02*
X031339Y000933D01*
X031339Y000775D02*
X008446Y000775D01*
X010239Y008541D02*
X010314Y008541D01*
X012673Y011711D02*
X012710Y011711D01*
X012945Y012155D02*
X012825Y012275D01*
X012825Y012733D01*
X012768Y012871D01*
X013002Y012871D01*
X012945Y012733D01*
X012945Y012155D01*
X012945Y012187D02*
X012913Y012187D01*
X012945Y012345D02*
X012825Y012345D01*
X012825Y012504D02*
X012945Y012504D01*
X012945Y012662D02*
X012825Y012662D01*
X012788Y012821D02*
X012981Y012821D01*
X013788Y012821D02*
X017036Y012821D01*
X017000Y012662D02*
X013825Y012662D01*
X013825Y012504D02*
X017000Y012504D01*
X017000Y012345D02*
X013825Y012345D01*
X013825Y012187D02*
X017000Y012187D01*
X017000Y012028D02*
X013825Y012028D01*
X013788Y011870D02*
X017036Y011870D01*
X017152Y011711D02*
X013673Y011711D01*
X017728Y011711D02*
X018152Y011711D01*
X018036Y011870D02*
X017843Y011870D01*
X017880Y012028D02*
X018000Y012028D01*
X018000Y012187D02*
X017880Y012187D01*
X017880Y012345D02*
X018000Y012345D01*
X018000Y012504D02*
X017880Y012504D01*
X021615Y008383D02*
X022829Y008383D01*
X022722Y008224D02*
X021723Y008224D01*
X021767Y008066D02*
X022677Y008066D01*
X022677Y007907D02*
X021767Y007907D01*
X021767Y007749D02*
X022677Y007749D01*
X022677Y007590D02*
X021767Y007590D01*
X021767Y007432D02*
X022677Y007432D01*
X022677Y007273D02*
X021767Y007273D01*
X021763Y007115D02*
X022682Y007115D01*
X022747Y006956D02*
X021697Y006956D01*
X021553Y006798D02*
X022891Y006798D01*
X025719Y008541D02*
X025904Y008541D01*
X031339Y004103D02*
X020264Y004103D01*
X020383Y003945D02*
X031339Y003945D01*
X031339Y003786D02*
X020443Y003786D01*
X020443Y003628D02*
X031339Y003628D01*
X031339Y003469D02*
X020402Y003469D01*
X020310Y003311D02*
X031339Y003311D01*
X031449Y011870D02*
X031840Y011870D01*
X031734Y012028D02*
X031555Y012028D01*
X031585Y012187D02*
X031705Y012187D01*
X031705Y012345D02*
X031585Y012345D01*
X031585Y012504D02*
X031705Y012504D01*
X031705Y012662D02*
X031585Y012662D01*
X031585Y012821D02*
X031705Y012821D01*
X031748Y012979D02*
X031541Y012979D01*
X031416Y013138D02*
X031873Y013138D01*
X031950Y013296D02*
X031330Y013296D01*
X031330Y013455D02*
X031950Y013455D01*
X031950Y013613D02*
X031330Y013613D01*
X031330Y013772D02*
X031950Y013772D01*
X031950Y013930D02*
X031330Y013930D01*
X031330Y014089D02*
X031883Y014089D01*
X031725Y014247D02*
X031262Y014247D01*
X031104Y014406D02*
X031566Y014406D01*
X031408Y014564D02*
X030945Y014564D01*
X030787Y014723D02*
X031249Y014723D01*
X031091Y014881D02*
X030628Y014881D01*
X030470Y015040D02*
X030932Y015040D01*
X030774Y015198D02*
X030311Y015198D01*
X030153Y015357D02*
X030615Y015357D01*
X030457Y015515D02*
X029994Y015515D01*
X029836Y015674D02*
X030298Y015674D01*
X030140Y015832D02*
X029677Y015832D01*
X029519Y015991D02*
X029981Y015991D01*
X029823Y016149D02*
X029360Y016149D01*
X029202Y016308D02*
X029664Y016308D01*
X029506Y016466D02*
X029043Y016466D01*
X028885Y016625D02*
X029347Y016625D01*
X029189Y016783D02*
X028726Y016783D01*
X028568Y016942D02*
X029030Y016942D01*
X028872Y017100D02*
X028409Y017100D01*
X028251Y017259D02*
X028713Y017259D01*
X028555Y017417D02*
X028092Y017417D01*
X027934Y017576D02*
X028396Y017576D01*
X028238Y017734D02*
X027775Y017734D01*
X027617Y017893D02*
X028079Y017893D01*
X027921Y018051D02*
X027458Y018051D01*
X027300Y018210D02*
X027762Y018210D01*
X027604Y018368D02*
X027141Y018368D01*
X026983Y018527D02*
X027445Y018527D01*
X027287Y018685D02*
X026824Y018685D01*
X026666Y018844D02*
X027128Y018844D01*
X026970Y019002D02*
X026507Y019002D01*
X026349Y019161D02*
X026811Y019161D01*
X026653Y019319D02*
X026190Y019319D01*
X026032Y019478D02*
X026494Y019478D01*
X026336Y019636D02*
X025873Y019636D01*
X025715Y019795D02*
X026177Y019795D01*
X026019Y019953D02*
X025556Y019953D01*
X025398Y020112D02*
X025860Y020112D01*
X025702Y020270D02*
X025239Y020270D01*
X025081Y020429D02*
X025543Y020429D01*
X025385Y020587D02*
X024922Y020587D01*
X024764Y020746D02*
X025226Y020746D01*
X025068Y020904D02*
X024605Y020904D01*
X024447Y021063D02*
X024909Y021063D01*
X024405Y021221D02*
X024288Y021221D01*
X020335Y028037D02*
X019505Y028037D01*
X020040Y028195D02*
X020177Y028195D01*
X020356Y028753D02*
X020169Y028941D01*
X020611Y028941D01*
X020485Y028889D01*
X020361Y028765D01*
X020356Y028753D01*
X020426Y028829D02*
X020280Y028829D01*
X021329Y029780D02*
X039040Y029780D01*
X039040Y029622D02*
X021488Y029622D01*
X021646Y029463D02*
X039040Y029463D01*
X039040Y029305D02*
X021805Y029305D01*
X021963Y029146D02*
X039040Y029146D01*
X039040Y029939D02*
X021171Y029939D01*
X021012Y030097D02*
X039040Y030097D01*
X039040Y030256D02*
X020854Y030256D01*
X020695Y030414D02*
X039040Y030414D01*
X039040Y030573D02*
X020537Y030573D01*
X020378Y030731D02*
X039040Y030731D01*
X039040Y030890D02*
X020220Y030890D01*
X023045Y028829D02*
X023426Y028829D01*
X023322Y028671D02*
X023148Y028671D01*
X023176Y028512D02*
X023294Y028512D01*
X023324Y028354D02*
X023146Y028354D01*
X024374Y036437D02*
X020379Y036437D01*
X020519Y036596D02*
X024504Y036596D01*
X020584Y036754D02*
X031233Y036754D01*
X031233Y036913D02*
X020584Y036913D01*
X020584Y037071D02*
X031233Y037071D01*
X031233Y037230D02*
X020584Y037230D01*
X020584Y037388D02*
X031233Y037388D01*
X031233Y037547D02*
X020584Y037547D01*
X020584Y037705D02*
X031233Y037705D01*
X031233Y037864D02*
X020584Y037864D01*
X020584Y038022D02*
X031233Y038022D01*
X031233Y038181D02*
X020584Y038181D01*
X020584Y038339D02*
X031233Y038339D01*
X031233Y038498D02*
X020584Y038498D01*
X020584Y038656D02*
X031233Y038656D01*
X031233Y038815D02*
X020584Y038815D01*
X020584Y038973D02*
X031233Y038973D01*
X032541Y012979D02*
X032748Y012979D01*
X032705Y012821D02*
X032585Y012821D01*
X032585Y012662D02*
X032705Y012662D01*
X032705Y012504D02*
X032585Y012504D01*
X032585Y012345D02*
X032705Y012345D01*
X032705Y012187D02*
X032585Y012187D01*
X032555Y012028D02*
X032734Y012028D01*
X032840Y011870D02*
X032449Y011870D01*
M02*
